<svg xmlns="http://www.w3.org/2000/svg" xmlns:xlink="http://www.w3.org/1999/xlink" width="91" height="89" viewBox="0 0 91 89">
  <defs>
    <style>
      .icon-1 {
        fill-rule: evenodd;
        fill: url(#linear-gradient-1);
      }
    </style>
    <linearGradient id="linear-gradient-1" x1="355.5" y1="736" x2="355.5" y2="647" gradientUnits="userSpaceOnUse">
      <stop offset="-1.395" stop-color="#269392"/>
      <stop offset="0.5" stop-color="#01ce84"/>
      <stop offset="1.395" stop-color="#269392"/>
    </linearGradient>
  </defs>
  <path id="_1" data-name="1" class="icon-1" d="M367.215,647a43.105,43.105,0,0,0-7.912.727,19.773,19.773,0,0,1,5.981,4.141c0.64-.032,1.284-0.053,1.931-0.053a34.178,34.178,0,0,1,20.978,6.7c5.183,4.036,8.038,9.286,8.038,14.784a17.863,17.863,0,0,1-5.526,12.545l-1.094,1.117-0.231,1.553-1.935,12.992-9.534-6.617-1.631-1.133-1.946.367a38.822,38.822,0,0,1-12.788.247c-0.2.036-.39,0.072-0.591,0.105l-1.814,1.67c2.114,1.141,4.259,2.305,6.28,3.417q0.891,0.036,1.794.037a43.2,43.2,0,0,0,8-.742l13.012,9.031a2.111,2.111,0,0,0,2.054.2,2.146,2.146,0,0,0,1.258-1.651l2.561-17.206A22.721,22.721,0,0,0,401,673.3C401,658.775,385.874,647,367.215,647Zm6.557,60.014c-2.739-1.908-12.3-7.065-16.384-9.268L357.3,697.7a1.327,1.327,0,0,0-1.454.128,17.312,17.312,0,0,1-6.97,3.4,1.341,1.341,0,0,0-.958.838l-2.53,6.732-2.53-6.732a1.339,1.339,0,0,0-.959-0.838,17.312,17.312,0,0,1-6.97-3.4,1.327,1.327,0,0,0-1.454-.128c-4.037,2.177-13.723,7.444-16.457,9.306-4.626,3.146-6.646,14.528-7,16.777a1.355,1.355,0,0,0,.06.665c0.165,0.471,4.409,11.552,35.314,11.552s35.149-11.081,35.314-11.552a1.344,1.344,0,0,0,.06-0.665C379.793,717.676,377.79,709.809,373.772,707.014ZM319.7,686.985h4.291a2.94,2.94,0,0,0,2.925-2.954V671.517a2.953,2.953,0,0,0-1.456-2.551c0.958-10.247,4.875-17.348,19.928-17.348,8.645,0,14.041,2.239,16.983,7.046,1.711,2.8,2.535,6.41,2.919,10.317a2.954,2.954,0,0,0-1.43,2.536v12.514a2.949,2.949,0,0,0,2.279,2.88c-1.893,1.248-5.809,2.524-13.915,2.524-0.658,0-1.342-.008-2.056-0.026a2.5,2.5,0,0,0-2.221-1.364h-3.577a2.528,2.528,0,0,0,0,5.055h3.577a2.488,2.488,0,0,0,2.027-1.049c0.754,0.019,1.491.031,2.2,0.031,9.139,0,14.949-1.575,17.3-4.7,0.1-.133.191-0.266,0.275-0.4h1.322a2.94,2.94,0,0,0,2.925-2.954V671.517a2.94,2.94,0,0,0-2.925-2.954h-1.615c-0.453-4.721-1.46-8.739-3.53-12.122-3.726-6.09-10.447-9.05-20.544-9.05s-16.818,2.96-20.545,9.05c-2.07,3.383-3.076,7.4-3.531,12.122H319.7a2.941,2.941,0,0,0-2.927,2.954v12.514A2.941,2.941,0,0,0,319.7,686.985ZM362,672v0.476c-0.909-.131-1.82-0.253-2.738-0.312-0.88-.057-1.761-0.094-2.643-0.131a31.913,31.913,0,0,0-5.079.163,17.733,17.733,0,0,0-3.044.6c-0.5.151-.994,0.328-1.5,0.477a5.222,5.222,0,0,1-2.4.193,12.482,12.482,0,0,1-1.444-.359,21.846,21.846,0,0,0-2.6-.668,28.693,28.693,0,0,0-5.1-.419,33.249,33.249,0,0,0-3.7.177c-0.92.1-1.838,0.219-2.757,0.335V672a6.53,6.53,0,0,0-1.031-4.031c0.566-4.624,1.779-7.685,3.872-9.83,2.7-2.768,7.132-4.114,13.551-4.114,7.737,0,12.489,1.876,14.954,5.9A20.417,20.417,0,0,1,362.784,668C361.957,668.967,362,670.7,362,672Zm-33,.528h0Zm0,3.421c0.064,0.2.119,0.394,0.178,0.591,0.045,0.148.105,0.292,0.14,0.442,0.169,0.7.325,1.4,0.5,2.1a7.7,7.7,0,0,0,.719,1.926,3.245,3.245,0,0,0,1.694,1.5,6.646,6.646,0,0,0,1.449.371,12.5,12.5,0,0,0,2.686.087,13.065,13.065,0,0,0,2.684-.438,5,5,0,0,0,1.786-.854,7.758,7.758,0,0,0,1.93-2.251,14.937,14.937,0,0,0,1.147-2.71c0.089-.267.173-0.535,0.276-0.8a1.061,1.061,0,0,1,.89-0.688,2.266,2.266,0,0,1,.428-0.018,1.154,1.154,0,0,1,.87.342,1.632,1.632,0,0,1,.246.368,7.07,7.07,0,0,1,.325.781,15.583,15.583,0,0,0,1.556,3.284,5.51,5.51,0,0,0,2.2,2.045,7.646,7.646,0,0,0,2.129.693,15.379,15.379,0,0,0,3.389.206,8.773,8.773,0,0,0,2.028-.294,3.344,3.344,0,0,0,1.721-1.028,4.544,4.544,0,0,0,.678-1.123,15.486,15.486,0,0,0,.825-2.611q0.158-.651.327-1.3c0.06-.226.134-0.448,0.2-0.672,0,0,0,0,0,0V683c0,0.725-.381,2.45-0.123,3.085a39.364,39.364,0,0,1-9.65.943c-0.289,0-.582,0-0.881,0a4.845,4.845,0,0,0-3.4-1.385h-3.577a4.935,4.935,0,0,0,0,9.87h3.577a4.864,4.864,0,0,0,2.982-1.029c0.443,0.008.856,0.011,1.249,0.011q2.517,0,4.719-.156c-4.02,3.7-8.7,5.386-11.509,5.386-4.272,0-12.878-3.9-16.9-12.858A5.321,5.321,0,0,0,329,684v-8.051Zm0,0h0ZM372,664v-2h13v2H372Zm3,3v-2h7v2h-7Zm-3,11v-2h13v2H372Zm0,4v-2h13v2H372Zm-5,4v-2h13v2H367Z" transform="translate(-310 -647)"/>
</svg>
