<svg xmlns="http://www.w3.org/2000/svg" xmlns:xlink="http://www.w3.org/1999/xlink" width="95" height="91" viewBox="0 0 95 91">
  <defs>
    <style>
      .icon-2 {
        fill-rule: evenodd;
        fill: url(#linear-gradient-2);
      }
    </style>
    <linearGradient id="linear-gradient-2" x1="529.5" y1="733" x2="529.5" y2="642" gradientUnits="userSpaceOnUse">
      <stop offset="-1.395" stop-color="#269392"/>
      <stop offset="0.5" stop-color="#01ce84"/>
      <stop offset="1.395" stop-color="#269392"/>
    </linearGradient>
  </defs>
  <path class="icon-2" d="M571.472,719.736c-0.955-1.652-3.311-2.738-5.936-2.738H491.482c-2.625,0-4.981,1.086-5.937,2.738l-3.356,10.8a1.329,1.329,0,0,0,.283,1.676,3.185,3.185,0,0,0,2.207.788h87.659a3.181,3.181,0,0,0,2.207-.788,1.327,1.327,0,0,0,.283-1.676Zm-77.436-4.416h69.287a6.415,6.415,0,0,0,6.394-6.435V674.364h-6.389l0,34.529-69.295-.008,0.008-44.873h34.413v-6.427H494.036a6.414,6.414,0,0,0-6.393,6.435v44.865A6.414,6.414,0,0,0,494.036,715.32ZM571.442,642H537a5.575,5.575,0,0,0-5.558,5.593V666.88A5.575,5.575,0,0,0,537,672.474h8.092l-3.439,9.315a0.626,0.626,0,0,0,.181.694,0.617,0.617,0,0,0,.709.069l17.7-10.079h11.2A5.575,5.575,0,0,0,577,666.88V647.593A5.575,5.575,0,0,0,571.442,642ZM534,674a1,1,0,0,1,1,1v31a1,1,0,0,1-2,0V673C533,672.447,533.448,674,534,674Zm8,12h15a1,1,0,0,1,0,2H542A1,1,0,0,1,542,686Zm0,3h15a1,1,0,0,1,0,2H542A1,1,0,0,1,542,689Zm0,9h15a1,1,0,0,1,0,2H542A1,1,0,0,1,542,698Zm0,3h15a1,1,0,0,1,0,2H542A1,1,0,0,1,542,701Zm9-44h20a1,1,0,0,1,0,2H551A1,1,0,0,1,551,657Zm-8,4h28a1,1,0,0,1,0,2H543A1,1,0,0,1,543,661Zm-1.5-9.029c1.294,0,1.759-1.383,1.881-2.519,0.15-1.4-.47-2.452-1.881-2.452s-2.031,1.053-1.881,2.452C539.741,650.588,540.206,651.972,541.5,651.971Zm3.5,3.96a10.027,10.027,0,0,0-.134-1.318,2.743,2.743,0,0,0-.629-1.639,3.368,3.368,0,0,0-.855-0.382A3.615,3.615,0,0,1,543,652.41a1.96,1.96,0,0,1-3,0,3.54,3.54,0,0,1-.38.182,3.4,3.4,0,0,0-.855.382,2.748,2.748,0,0,0-.628,1.639,10.027,10.027,0,0,0-.134,1.318,0.445,0.445,0,0,0,.414.492,7.3,7.3,0,0,0,1.029.3,7.851,7.851,0,0,0,4.112,0,7.3,7.3,0,0,0,1.029-.3A0.445,0.445,0,0,0,545,655.931ZM543,665h28a1,1,0,0,1,0,2H543A1,1,0,0,1,543,665Zm-29,13a8,8,0,1,0,8,8A8,8,0,0,0,514,678Zm3.828,8.642-4.772,3.283a0.78,0.78,0,0,1-1.222-.642v-6.566a0.78,0.78,0,0,1,1.222-.642l4.772,3.282A0.78,0.78,0,0,1,517.828,686.642Z" transform="translate(-482 -642)"/>
</svg>
