<svg xmlns="http://www.w3.org/2000/svg" xmlns:xlink="http://www.w3.org/1999/xlink" width="91" height="81.969" viewBox="0 0 91 81.969">
  <defs>
    <style>
      .icon-3 {
        fill-rule: evenodd;
        fill: url(#linear-gradient-3);
      }
    </style>
    <linearGradient id="linear-gradient-3" x1="712.5" y1="732" x2="712.5" y2="650.031" gradientUnits="userSpaceOnUse">
      <stop offset="-1.395" stop-color="#269392"/>
      <stop offset="0.5" stop-color="#01ce84"/>
      <stop offset="1.395" stop-color="#269392"/>
    </linearGradient>
  </defs>
  <path class="icon-3" d="M749.117,712.183a10.925,10.925,0,0,0-7.032,19.293,20.517,20.517,0,1,1,15.392-15.391A10.913,10.913,0,0,0,749.117,712.183Zm-25.967-1.449h-0.683a0.684,0.684,0,1,0,0,1.367h0.683A0.684,0.684,0,0,0,723.15,710.734Zm4.686-9.948-0.483-.483a0.683,0.683,0,0,0-.966.966l0.483,0.484A0.683,0.683,0,1,0,727.836,700.786Zm0,20.3a0.683,0.683,0,0,0-.966,0l-0.483.484a0.683,0.683,0,0,0,.966.966l0.483-.483A0.684,0.684,0,0,0,727.836,721.081Zm10.347-24.7a0.683,0.683,0,1,0-1.366,0v0.683a0.683,0.683,0,0,0,1.366,0v-0.683Zm0,12.4V701.85a0.683,0.683,0,1,0-1.366,0v6.931a2.727,2.727,0,0,0-1.953,1.953h-4.881a0.684,0.684,0,0,0,0,1.367h4.881A2.727,2.727,0,1,0,738.183,708.781Zm10.43-8.478a0.683,0.683,0,0,0-.966,0l-0.483.483a0.683,0.683,0,1,0,.966.967l0.483-.484A0.683,0.683,0,0,0,748.613,700.3ZM737.5,712.784a1.367,1.367,0,1,1,1.367-1.367A1.367,1.367,0,0,1,737.5,712.784Zm6.486-30.3h-12.6V687.8c-0.277.071-.558,0.133-0.832,0.214v-5.528H716.686v7.054h10q-0.8.4-1.57,0.846h-8.428v7.053h0.768c-0.195.278-.381,0.56-0.564,0.846h-0.2v0.335a24.366,24.366,0,0,0-1.267,2.318v-2.653H701.56v7.051h12.253c-0.073.282-.154,0.56-0.218,0.845h-40.6v7.808h40.132a24.318,24.318,0,0,0,1.412,5.989L669.5,720H669l-0.052-.066A2.5,2.5,0,0,1,667,717.5c0-.053.012-0.1,0.015-0.153,0-.007-0.019-0.031-0.019-0.035,0-6.725,0-61.312,0-61.312l0.044-.066a2.454,2.454,0,0,1,2.132-2.9c0.012,0,.035-0.032.043-0.032H679l0.024-2.973h5.724v3.22h8.089v-3.22h5.724v3.22h8.43v-3.22h5.722v3.22h5.732v-3.22h5.724v3.22h8.093v-3.22h5.723L738,653h9.125c0,0.014,0,.025-0.006.038A2.438,2.438,0,0,1,749.95,655l0.05,0,0.006,35.46a24.289,24.289,0,0,0-6.02-2.564v-5.409ZM701.56,697.44h13.856v-7.053H701.56v7.053Zm0-7.9h13.859v-7.054H701.56v7.054Zm-14.687,15.8h13.856v-7.051H686.873v7.051Zm0-15.8h13.856v-7.054H686.873v7.054Zm-13.879,15.8H685.6v-7.051H672.994v7.051Zm0-7.9H685.6v-7.053H672.994v7.053Zm0-7.9H685.6v-7.054H672.994v7.054ZM743.986,659h-6.05v3.963a3.554,3.554,0,1,1-5.354,0V659h-8.5v3.963a3.549,3.549,0,1,1-5.354,0V659h-6.3v3.963a3.552,3.552,0,1,1-5.352,0V659h-8.82v3.963a3.55,3.55,0,1,1-5.359,0V659h-8.5v3.374a3.632,3.632,0,0,1,.939,2.429,3.552,3.552,0,1,1-6.29-2.273V659h-6.05v22.639h70.992V659Zm-1.994,20h-7.479v-1.99h7.479V679Zm-21.83-1.99h7.479V679h-7.479v-1.99Zm-15.445,0H712.2V679h-7.479v-1.99Zm-14.282,0h7.48V679h-7.48v-1.99Zm-15.442,0h7.48V679h-7.48v-1.99Zm74.124,37.22a8.884,8.884,0,1,1-8.884,8.883A8.893,8.893,0,0,1,749.117,714.233Zm0,16.4a7.517,7.517,0,1,0-7.517-7.517A7.525,7.525,0,0,0,749.117,730.633Zm-2.984-7.361,2.7,2.215,3.824-5.494a0.684,0.684,0,0,1,1.122.781l-4.247,6.1a0.683,0.683,0,0,1-.467.286,0.6,0.6,0,0,1-.094.007,0.683,0.683,0,0,1-.433-0.156l-3.27-2.685A0.683,0.683,0,0,1,746.133,723.272Z" transform="translate(-667 -650.031)"/>
</svg>
