<svg xmlns="http://www.w3.org/2000/svg" xmlns:xlink="http://www.w3.org/1999/xlink" width="95.969" height="82.844" viewBox="0 0 95.969 82.844">
  <defs>
    <style>
      .icon-4 {
        fill-rule: evenodd;
        fill: url(#linear-gradient-4);
      }
    </style>
    <linearGradient id="linear-gradient-4" x1="889.985" y1="728.875" x2="889.985" y2="646.031" gradientUnits="userSpaceOnUse">
      <stop offset="-1.395" stop-color="#269392"/>
      <stop offset="0.5" stop-color="#01ce84"/>
      <stop offset="1.395" stop-color="#269392"/>
    </linearGradient>
  </defs>
  <path class="icon-4" d="M917.307,648.259h-11.1a3.884,3.884,0,0,0-3.485-2.235H877.289a3.882,3.882,0,0,0-3.486,2.235H862.709a1.761,1.761,0,0,0,0,3.521H873.83a3.861,3.861,0,0,0,3.461,2.236h9.236a4.054,4.054,0,0,0-.419,1.708,4.668,4.668,0,0,0,1.11,3.092,3.928,3.928,0,0,0,2.446,1.1H866v68.963L889.991,716l23.994,12.883V659.917h-23.66a3.871,3.871,0,0,0,2.444-1.1,4.693,4.693,0,0,0,1.14-3.092,4.011,4.011,0,0,0-.42-1.708h9.236a3.875,3.875,0,0,0,3.485-2.236H917.3A1.759,1.759,0,0,0,917.307,648.259ZM870,664h40v59l-19.706-11L870,722V664Zm9.263,11.9-2.439-1.3-2.438,1.3,0.466-2.758-1.975-1.954,2.727-.4,1.22-2.508,1.221,2.508,2.726,0.4-1.974,1.954Zm22.674-5.112,1.221-2.507,1.22,2.507,2.725,0.4-1.971,1.954L905.6,675.9l-2.438-1.3-2.439,1.3,0.465-2.758-1.971-1.954Zm-8,.4-1.977,1.954,0.467,2.758-2.438-1.3-2.439,1.3,0.466-2.758-1.974-1.954,2.726-.4,1.221-2.5,1.221,2.507Zm-7.994,24.494a3.448,3.448,0,0,1,2.94-1.284q3.476,0,3.475,3.938,0,4.258-2.84,4.258a2.682,2.682,0,0,1-2.021-.794,3.253,3.253,0,0,1-.852-2.146H881a6.44,6.44,0,0,0,1.119,3.765,7.726,7.726,0,0,0,3.141,2.622,9.834,9.834,0,0,0,4.293.956,9.154,9.154,0,0,0,4.461-1.033,7.22,7.22,0,0,0,2.932-2.955,10.031,10.031,0,0,0-.9-10.4,7.853,7.853,0,0,0-7.485-1.9,6.581,6.581,0,0,0-1.578.629l0.551-4.932h9.639V682H882.955l-1.487,12.612Zm48.406,2.3-5.86-3.24-5.861,3.24,1.12-6.872-4.744-4.87,6.551-1,2.934-6.249,2.933,6.249,6.551,1-4.744,4.87Zm-77,0-5.86-3.24-5.861,3.24,1.12-6.872-4.744-4.87,6.551-1,2.934-6.249,2.933,6.249,6.551,1-4.744,4.87Z" transform="translate(-842 -646.031)"/>
</svg>
