<svg xmlns="http://www.w3.org/2000/svg" xmlns:xlink="http://www.w3.org/1999/xlink" width="110.03" height="93" viewBox="0 0 110.03 93">
  <defs>
    <style>
      .icon-5 {
        fill-rule: evenodd;
        fill: url(#linear-gradient-5);
      }
    </style>
    <linearGradient id="linear-gradient-5" x1="1073.205" y1="736" x2="1073.205" y2="643" gradientUnits="userSpaceOnUse">
      <stop offset="-1.395" stop-color="#269392"/>
      <stop offset="0.5" stop-color="#01ce84"/>
      <stop offset="1.395" stop-color="#269392"/>
    </linearGradient>
  </defs>
  <path class="icon-5" d="M1106.98,722.974c-1.05-6.513-3.21-14.9-7.55-17.883-2.97-2.036-13.31-7.541-17.73-9.891l-0.08-.041a1.446,1.446,0,0,0-1.57.138,18.788,18.788,0,0,1-7.53,3.624,1.434,1.434,0,0,0-1.04.893l-2.48,6.511-2.48-6.511a1.436,1.436,0,0,0-1.04-.893,18.8,18.8,0,0,1-7.53-3.624,1.446,1.446,0,0,0-1.57-.138l-0.08.041c-4.42,2.35-14.76,7.855-17.73,9.891-4.34,2.981-6.5,11.37-7.55,17.883a1.419,1.419,0,0,0,.06.708c0.18,0.5,4.75,12.257,37.92,12.318,33.17-.061,37.74-11.816,37.92-12.318A1.419,1.419,0,0,0,1106.98,722.974Zm-13.7-42.16h-0.68a1.892,1.892,0,0,1-1.45.671h-1.99a1.96,1.96,0,0,1-1.21-.421c-3.8,11.225-14.38,16.245-18.95,16.245s-15.14-5.018-18.95-16.241a1.962,1.962,0,0,1-1.2.417h-1.99a1.966,1.966,0,0,1-1.47-.671h-0.67a2.019,2.019,0,0,1-1.95-2.083V664.95a2.011,2.011,0,0,1,1.85-2.052l-0.01-.322c0-.251-0.02-0.5-0.02-0.751,0-3.046,3.19-8.821,7.22-12.87,3.83-3.846,11.96-5.958,17.72-5.958s13.9,3.181,17.73,7.025c4.03,4.054,6.16,8.223,6.16,11.8,0,0.341-.02.682-0.04,1.016l-0.01.057c1.04,0.055,1.86,2.015,1.86,3.121v12.712A2.019,2.019,0,0,1,1093.28,680.814Zm-23.34-34.83c-11.02,0-22.43,6.983-22.43,16.217h1.34a1.966,1.966,0,0,1,.41.044,18.287,18.287,0,0,1,3.17-8.388c2.88-4.048,7.89-6.533,16.57-6.581,8.68,0.048,13.69,2.533,16.57,6.58a18.3,18.3,0,0,1,3.17,8.39,1.994,1.994,0,0,1,.42-0.045h1.34C1090.5,653.01,1079.81,645.984,1069.94,645.984Zm12.35,22.585h-2.38a0.7,0.7,0,0,1-.68-0.7,0.647,0.647,0,0,1,.7-0.675h2.39A0.689,0.689,0,1,1,1082.29,668.569Zm-0.78-5.118-2.2.911a0.7,0.7,0,0,1-.9-0.389,0.648,0.648,0,0,1,.39-0.891l2.21-.911A0.687,0.687,0,0,1,1081.51,663.451Zm-4.37-2.754a0.693,0.693,0,0,1-.98-0.021,0.654,0.654,0,0,1,.02-0.974l1.69-1.683a0.706,0.706,0,0,1,.98.021,0.687,0.687,0,0,1-.02.974Zm-1.26,12.845a15.06,15.06,0,0,0-3.06,6.676l-7.76-.028a16.428,16.428,0,0,0-3.15-6.864,8.773,8.773,0,0,1-1.84-5.675,8.918,8.918,0,0,1,17.83.32A8.745,8.745,0,0,1,1075.88,673.542Zm-2.15-15.4a0.694,0.694,0,0,1-.91.354,0.647,0.647,0,0,1-.36-0.911l0.92-2.2a0.693,0.693,0,0,1,1.27.556Zm-4.83-.39a0.641,0.641,0,0,1-.68-0.7v-2.379a0.69,0.69,0,0,1,1.38.028v2.379A0.7,0.7,0,0,1,1068.9,657.755Zm-3.92.814a0.659,0.659,0,0,1-.9-0.39l-0.91-2.2a0.687,0.687,0,0,1,1.28-.5l0.92,2.2A0.685,0.685,0,0,1,1064.98,658.569Zm-4.28,2.218-1.69-1.683a0.686,0.686,0,0,1,.02-0.973,0.706,0.706,0,0,1,.98.02l1.69,1.684a0.7,0.7,0,0,1-.02.973A0.652,0.652,0,0,1,1060.7,660.787Zm-1.21,3.352a0.656,0.656,0,0,1-.92.355l-2.2-.911a0.678,0.678,0,0,1-.36-0.9,0.693,0.693,0,0,1,.91-0.355l2.21,0.9A0.7,0.7,0,0,1,1059.49,664.139Zm-0.72,3.756a0.692,0.692,0,0,1-.7.674h-2.39a0.7,0.7,0,0,1-.68-0.7,0.65,0.65,0,0,1,.71-0.675h2.38A0.7,0.7,0,0,1,1058.77,667.9Zm-2.35,4.423,2.2-.911a0.7,0.7,0,0,1,.9.389,0.693,0.693,0,0,1-.39.89l-2.21.911a0.687,0.687,0,0,1-.89-0.389A0.638,0.638,0,0,1,1056.42,672.318Zm6.99,11.28h0.93v-2.024l9.19,0.028v2.024h0.92a0.675,0.675,0,0,1,.68.7,0.7,0.7,0,0,1-.7.675h-0.95a3.574,3.574,0,0,1-3.53,3h-2.12a3.528,3.528,0,0,1-3.49-3.025h-0.95A0.689,0.689,0,1,1,1063.41,683.6Zm15.9-12.038,2.2,0.911a0.681,0.681,0,0,1,.36.911,0.658,0.658,0,0,1-.92.355l-2.2-.912a0.694,0.694,0,0,1-.36-0.911A0.709,0.709,0,0,1,1079.31,671.56Zm29.18,17.574a2.52,2.52,0,0,1-1.85-.031,2.619,2.619,0,0,1-1.39-1.27,2.288,2.288,0,0,1-.01-1.982,2.345,2.345,0,0,1,1.33-1.356,2.468,2.468,0,0,1,1.93.012,2.449,2.449,0,0,1,1.37,3.217A2.311,2.311,0,0,1,1108.49,689.134Zm11.5-11.912a7.593,7.593,0,0,1-1.95,1.189c-0.68.28-1.87,0.728-3.59,1.344a11.552,11.552,0,0,0-1.18.5,3.816,3.816,0,0,0-.74.47,3.975,3.975,0,0,0-.48.5c-0.13.178-.36,0.5-0.68,0.951a1.839,1.839,0,0,1-2.47.859,2.03,2.03,0,0,1-1.14-1.067,2.221,2.221,0,0,1,.09-1.773,5.858,5.858,0,0,1,3.03-3.307c0.64-.3,1.46-0.624,2.47-0.977q1.335-.463,1.95-0.723a4.978,4.978,0,0,0,1.14-.678,2.588,2.588,0,0,0,.77-1.047,2.943,2.943,0,0,0-.08-2.445,3.58,3.58,0,0,0-2.02-1.8,3.51,3.51,0,0,0-2.83-.155,7.305,7.305,0,0,0-2.37,1.966,2.2,2.2,0,0,1-2.69.935,2.144,2.144,0,0,1-1.21-1.195,1.961,1.961,0,0,1-.05-1.553,5.952,5.952,0,0,1,2.13-2.58,7.8,7.8,0,0,1,3.74-1.375,9.305,9.305,0,0,1,4.6.713,9.733,9.733,0,0,1,3.6,2.416,6.937,6.937,0,0,1,1.73,3.3,5.967,5.967,0,0,1-.31,3.45A5.1,5.1,0,0,1,1119.99,677.222Zm8.2,22.848a1.618,1.618,0,0,1-.65,1.02,1.7,1.7,0,0,1-1.19.336,1.641,1.641,0,0,1-.78-2.962,1.573,1.573,0,0,1,1.21-.3,1.622,1.622,0,0,1,1.08.655A1.576,1.576,0,0,1,1128.19,700.07Zm-2.84-10.532a5.023,5.023,0,0,1,.01,1.5c-0.08.475-.23,1.3-0.46,2.469-0.06.327-.1,0.6-0.12,0.829a2.253,2.253,0,0,0,.14,1.016c0.05,0.137.16,0.373,0.31,0.707a1.207,1.207,0,0,1-.36,1.678,1.327,1.327,0,0,1-.99.264,1.508,1.508,0,0,1-.98-0.66,3.9,3.9,0,0,1-.84-2.837,16.621,16.621,0,0,1,.29-1.716c0.12-.6.21-1.047,0.25-1.335a3.14,3.14,0,0,0,0-.866,1.693,1.693,0,0,0-.33-0.793,1.963,1.963,0,0,0-1.41-.8,2.374,2.374,0,0,0-1.71.5,2.271,2.271,0,0,0-1.05,1.528,4.725,4.725,0,0,0,.31,2,1.417,1.417,0,0,1-.39,1.821,1.373,1.373,0,0,1-1.08.26,1.338,1.338,0,0,1-.9-0.5,3.928,3.928,0,0,1-.74-2.083,5.075,5.075,0,0,1,.49-2.561,5.968,5.968,0,0,1,1.97-2.315,6.259,6.259,0,0,1,2.59-1.173,4.567,4.567,0,0,1,2.46.176,3.955,3.955,0,0,1,1.85,1.369A3.345,3.345,0,0,1,1125.35,689.538Zm-32.6,5.85a1.192,1.192,0,0,1-.87-0.043,1.206,1.206,0,0,1-.61-0.614,1.058,1.058,0,0,1,.07-0.926,1.206,1.206,0,0,1,1.58-.577,1.044,1.044,0,0,1,.6.638,1.1,1.1,0,0,1-.07.885A1.131,1.131,0,0,1,1092.75,695.388Zm5.84-5.383a3.779,3.779,0,0,1-.96.525q-0.5.18-1.74,0.572a5.657,5.657,0,0,0-.57.215,1.713,1.713,0,0,0-.36.208,1.424,1.424,0,0,0-.25.228c-0.07.081-.19,0.225-0.35,0.433a0.9,0.9,0,0,1-1.2.362,0.866,0.866,0,0,1-.49-0.515,1.006,1.006,0,0,1,.1-0.827,2.923,2.923,0,0,1,.69-0.949,3,3,0,0,1,.86-0.548,12.145,12.145,0,0,1,1.19-.418c0.43-.13.75-0.232,0.95-0.307a2.287,2.287,0,0,0,.55-0.3,1.155,1.155,0,0,0,.4-0.477,1.348,1.348,0,0,0,.06-1.143,1.63,1.63,0,0,0-.89-0.872,1.66,1.66,0,0,0-1.33-.116,3.579,3.579,0,0,0-1.18.881,1.08,1.08,0,0,1-1.3.395,0.948,0.948,0,0,1-.53-0.577,0.908,0.908,0,0,1,.03-0.726,3.008,3.008,0,0,1,1.1-1.172,3.822,3.822,0,0,1,1.81-.584,4.3,4.3,0,0,1,2.13.4,4.221,4.221,0,0,1,1.61,1.184,3.017,3.017,0,0,1,.7,1.569,2.792,2.792,0,0,1-.27,1.607A2.577,2.577,0,0,1,1098.59,690.005Zm-78.84,16.383a1.2,1.2,0,0,1-1.48-.657,1.058,1.058,0,0,1,.07-0.926,1.206,1.206,0,0,1,1.58-.577,1.044,1.044,0,0,1,.6.638,1.1,1.1,0,0,1-.07.885A1.131,1.131,0,0,1,1019.75,706.388Zm5.84-5.383a3.779,3.779,0,0,1-.96.525q-0.5.18-1.74,0.572a5.939,5.939,0,0,0-.57.214,1.757,1.757,0,0,0-.36.209,1.424,1.424,0,0,0-.25.228c-0.07.081-.19,0.225-0.35,0.433a0.9,0.9,0,0,1-1.2.363,0.87,0.87,0,0,1-.49-0.516,1.006,1.006,0,0,1,.1-0.827,2.923,2.923,0,0,1,.69-0.949,3,3,0,0,1,.86-0.548,12.145,12.145,0,0,1,1.19-.418c0.43-.13.75-0.232,0.95-0.307a2.287,2.287,0,0,0,.55-0.3,1.155,1.155,0,0,0,.4-0.477,1.348,1.348,0,0,0,.06-1.143,1.63,1.63,0,0,0-.89-0.872,1.66,1.66,0,0,0-1.33-.116,3.593,3.593,0,0,0-1.18.881,1.08,1.08,0,0,1-1.3.395,0.948,0.948,0,0,1-.53-0.577,0.908,0.908,0,0,1,.03-0.726,3.008,3.008,0,0,1,1.1-1.172,3.822,3.822,0,0,1,1.81-.584,4.3,4.3,0,0,1,2.13.4,4.23,4.23,0,0,1,1.61,1.183,3.024,3.024,0,0,1,.7,1.57,2.792,2.792,0,0,1-.27,1.607A2.577,2.577,0,0,1,1025.59,701.005Zm80.3-45.293a1.17,1.17,0,0,1,.79.358,1.155,1.155,0,0,1,.35.794,1.089,1.089,0,0,1-.4.838,1.189,1.189,0,0,1-.86.323,1.176,1.176,0,0,1-.83-0.364,1.088,1.088,0,0,1-.32-0.811,1.127,1.127,0,0,1,.39-0.8A1.143,1.143,0,0,1,1105.89,655.712Zm-7.4,2.879a3.726,3.726,0,0,1,1.08-.138c0.36,0.008.96,0.043,1.83,0.1a5.932,5.932,0,0,0,.61.009,1.837,1.837,0,0,0,.42-0.062,1.906,1.906,0,0,0,.31-0.123c0.09-.049.26-0.14,0.49-0.274a0.959,0.959,0,0,1,1.52.761,1.059,1.059,0,0,1-.4.732,3.134,3.134,0,0,1-.99.632,3.013,3.013,0,0,1-1,.2c-0.33.007-.76-0.009-1.27-0.049q-0.66-.054-0.99-0.058a2.34,2.34,0,0,0-.62.074,1.265,1.265,0,0,0-.55.3,1.367,1.367,0,0,0-.47,1.045,1.586,1.586,0,0,0,.51,1.135,1.644,1.644,0,0,0,1.19.594,3.66,3.66,0,0,0,1.43-.387,1.071,1.071,0,0,1,1.35.106,1,1,0,0,1-.01,1.4,3,3,0,0,1-1.45.689,3.841,3.841,0,0,1-1.9-.117,4.735,4.735,0,0,1-2.91-2.847,3.062,3.062,0,0,1-.07-1.717,2.788,2.788,0,0,1,.84-1.4A2.538,2.538,0,0,1,1098.49,658.591Zm-75,28.543a2.52,2.52,0,0,1-1.85-.031,2.619,2.619,0,0,1-1.39-1.27,2.288,2.288,0,0,1-.01-1.982,2.345,2.345,0,0,1,1.33-1.356,2.473,2.473,0,0,1,1.93.011,2.45,2.45,0,0,1,1.37,3.218A2.311,2.311,0,0,1,1023.49,687.134Zm11.5-11.912a7.593,7.593,0,0,1-1.95,1.189c-0.68.28-1.87,0.728-3.59,1.344a11.552,11.552,0,0,0-1.18.5,3.816,3.816,0,0,0-.74.47,3.916,3.916,0,0,0-.48.5c-0.13.177-.36,0.494-0.68,0.95a1.839,1.839,0,0,1-2.47.859,2.03,2.03,0,0,1-1.14-1.067,2.221,2.221,0,0,1,.09-1.773,5.858,5.858,0,0,1,3.03-3.307c0.64-.3,1.46-0.624,2.47-0.977q1.335-.463,1.95-0.723a4.978,4.978,0,0,0,1.14-.678,2.588,2.588,0,0,0,.77-1.047,2.943,2.943,0,0,0-.08-2.445,3.58,3.58,0,0,0-2.02-1.8,3.505,3.505,0,0,0-2.83-.154,7.288,7.288,0,0,0-2.37,1.965,2.2,2.2,0,0,1-2.69.935,2.146,2.146,0,0,1-1.21-1.194,1.963,1.963,0,0,1-.05-1.554,5.952,5.952,0,0,1,2.13-2.58,7.8,7.8,0,0,1,3.74-1.375,9.305,9.305,0,0,1,4.6.713,9.733,9.733,0,0,1,3.6,2.416,6.939,6.939,0,0,1,1.73,3.3,5.97,5.97,0,0,1-.31,3.451A5.1,5.1,0,0,1,1034.99,675.222Zm6.2,21.848a1.613,1.613,0,0,1-.65,1.019,1.692,1.692,0,0,1-1.19.337,1.641,1.641,0,0,1-.78-2.962,1.573,1.573,0,0,1,1.21-.3,1.622,1.622,0,0,1,1.08.655A1.576,1.576,0,0,1,1041.19,697.07Zm-2.84-10.532a5.023,5.023,0,0,1,.01,1.5c-0.08.475-.23,1.3-0.46,2.469-0.06.327-.1,0.6-0.12,0.829a2.088,2.088,0,0,0,.02.573,1.619,1.619,0,0,0,.12.443c0.05,0.137.16,0.373,0.31,0.707a1.207,1.207,0,0,1-.36,1.678,1.322,1.322,0,0,1-.99.263,1.5,1.5,0,0,1-.98-0.659,3.9,3.9,0,0,1-.84-2.837,16.621,16.621,0,0,1,.29-1.716c0.12-.6.21-1.047,0.25-1.335a3.14,3.14,0,0,0,0-.866,1.693,1.693,0,0,0-.33-0.793,1.963,1.963,0,0,0-1.41-.8,2.374,2.374,0,0,0-1.71.5,2.271,2.271,0,0,0-1.05,1.528,4.725,4.725,0,0,0,.31,2,1.417,1.417,0,0,1-.39,1.821,1.373,1.373,0,0,1-1.08.26,1.338,1.338,0,0,1-.9-0.5,3.928,3.928,0,0,1-.74-2.083,5.075,5.075,0,0,1,.49-2.561,5.968,5.968,0,0,1,1.97-2.315,6.259,6.259,0,0,1,2.59-1.173,4.567,4.567,0,0,1,2.46.176,3.955,3.955,0,0,1,1.85,1.369A3.345,3.345,0,0,1,1038.35,686.538Zm0.4-23.15a1.2,1.2,0,0,1-1.48-.657,1.058,1.058,0,0,1,.07-0.926,1.206,1.206,0,0,1,1.58-.577,1.044,1.044,0,0,1,.6.638,1.1,1.1,0,0,1-.07.885A1.131,1.131,0,0,1,1038.75,663.388Zm5.84-5.383a3.779,3.779,0,0,1-.96.525q-0.5.18-1.74,0.572a5.657,5.657,0,0,0-.57.215,1.713,1.713,0,0,0-.36.208,1.424,1.424,0,0,0-.25.228c-0.07.081-.19,0.225-0.35,0.433a0.9,0.9,0,0,1-1.2.362,0.868,0.868,0,0,1-.49-0.515,1.006,1.006,0,0,1,.1-0.827,2.923,2.923,0,0,1,.69-0.949,3,3,0,0,1,.86-0.548,11.886,11.886,0,0,1,1.19-.418c0.43-.13.75-0.232,0.95-0.307a2.287,2.287,0,0,0,.55-0.3,1.155,1.155,0,0,0,.4-0.477,1.348,1.348,0,0,0,.06-1.143,1.63,1.63,0,0,0-.89-0.872,1.66,1.66,0,0,0-1.33-.116,3.579,3.579,0,0,0-1.18.881,1.08,1.08,0,0,1-1.3.395,0.948,0.948,0,0,1-.53-0.577,0.908,0.908,0,0,1,.03-0.726,3.008,3.008,0,0,1,1.1-1.172,3.822,3.822,0,0,1,1.81-.584,4.3,4.3,0,0,1,2.13.4,4.23,4.23,0,0,1,1.61,1.183,3.024,3.024,0,0,1,.7,1.57,2.792,2.792,0,0,1-.27,1.607A2.577,2.577,0,0,1,1044.59,658.005Z" transform="translate(-1018.19 -643)"/>
</svg>
