<svg xmlns="http://www.w3.org/2000/svg" xmlns:xlink="http://www.w3.org/1999/xlink" width="85.03" height="85.031" viewBox="0 0 85.03 85.031">
  <defs>
    <style>
      .icon-6 {
        fill-rule: evenodd;
        fill: url(#linear-gradient-6);
      }
    </style>
    <linearGradient id="linear-gradient-6" x1="1246.515" y1="731.031" x2="1246.515" y2="646" gradientUnits="userSpaceOnUse">
      <stop offset="-1.395" stop-color="#269392"/>
      <stop offset="0.5" stop-color="#01ce84"/>
      <stop offset="1.395" stop-color="#269392"/>
    </linearGradient>
  </defs>
  <path class="icon-6" d="M1223.91,676.379h-2v10.377l3.67-3.072,3.34,3.072V676.379h-2.12V664.792l34.93,11.036,22.22-19.553-36.14-10.26-28.4,16.44,4.5,1.422v12.5Zm34.46,42.908a9.078,9.078,0,0,0,9.14,9.016h0.43a9.088,9.088,0,0,0,9.15-9.016v-4.575h-18.72v4.575Zm28.13-24.2c2.18-1.936,3.91-7.316.9-9.331-4.39-2.943-11.38-1.445-16.36-1.624a13.033,13.033,0,0,1-2.94-.488c2.44-1.547,4.17-2.638,4.17-2.638V669.226l-10.19,8.874-27.6-9.289v15.236a19.157,19.157,0,0,1,11.08-.055c5.47,1.86,14.73,7.347,14.73,7.347a25.414,25.414,0,0,1,5.85-6.424c4.88,1.343,10.57.472,15.47,0.648,6.62,0.239,7.49,6.209,2.31,9.863-2.28,1.606-5.32,2.191-7.99,2.867-3.85.974-6.97,2.535-8.26,5.853h-0.21c-0.02.118-.03,0.239-0.05,0.328h-9.04v9.716h18.72v-9.716h-8.06C1271.68,698.97,1282.2,698.905,1286.5,695.088Zm-17.41,16.277a1.326,1.326,0,0,1-1.33,1.312h-0.06a1.328,1.328,0,0,1-1.33-1.312v-3.41a1.323,1.323,0,0,1,.81-1.207,0.654,0.654,0,0,0,1.09,0,1.3,1.3,0,0,1,.82,1.212v3.41h0Zm-14.6,6.325a6.231,6.231,0,0,0-2.78-2.852c-1.77-1.054-10.54-6.314-18.01-11.56a18.434,18.434,0,0,1,4.89-4.583,49.215,49.215,0,0,1,7.5-3.137l-3.71-.74,0.18-2.356s-4.23,1.312-6.41,3.153a52.139,52.139,0,0,0-4.32,4.195,21.182,21.182,0,0,1,2.54-6,27.392,27.392,0,0,1,5.47-5.037l-2.76-.671-1.71-3.39s-3.79,6.734-4.44,8.29a66.941,66.941,0,0,1-2.67,6.272c-5.46-4.245-9.91-8.274-10.24-8.633-1.87-1.993-3.96-2.959-6.07-2.781-2.57.221-5.06,2.115-7.37,5.638l-0.59.9,0.94,0.556c0.77,0.464,1.54.921,2.29,1.367-0.97,1.744-2.71,5.687-1.51,9.976l0.16,0.556,0.56,0.16c10.2,2.941,27.49,18.6,29.5,20.427a7.473,7.473,0,0,0,2.56,2.293c4.57,2.676,10.1.792,13.29-2.094,2.76-2.479,3.92-5.611,3.24-8.467A6.315,6.315,0,0,0,1254.49,717.69Zm-23.08-13.476c4.96,3.544,10.68,7.18,14.65,9.625a32.691,32.691,0,0,0-9.37,2.109c-0.99-1.335-3.59-4.294-9.91-9.108A16.486,16.486,0,0,1,1231.41,704.214Zm-13.04,6.608a47.655,47.655,0,0,0-10.76-5.627,11.867,11.867,0,0,1,1.4-7.786c4.41,2.692,8.09,5.1,11.17,7.23A8.03,8.03,0,0,0,1218.37,710.822Zm-11.41-17.085c1.74-2.387,3.47-3.665,5.18-3.809,1.44-.123,2.9.587,4.33,2.114,0.52,0.551,4.6,4.213,9.54,8.117-0.94.228-2.23,0.813-4.4,2.932C1217.74,700.4,1212.93,697.289,1206.96,693.737Zm43.41,32.366c-2.65,2.381-7.15,3.974-10.8,1.841-1.83-1.068-2.56-2.261-2.17-3.536a5.109,5.109,0,0,1,1.73-2.332c0.89,0.566,2.72,1.778,5.85,4.061l0.51,0.364,0.56-.254c3.63-1.632,3.62-3.8,3.45-4.654-0.43-1.98-2.71-3.436-5.74-3.552-2.59-.1-7.35,2.337-8.38,5.782a1.81,1.81,0,0,0-.07.249c-2.49-2.209-6.77-5.873-11.55-9.446a10.1,10.1,0,0,1,1.52-6.3c8.37,6.348,10.03,9.318,10.05,9.354l0.44,0.882,0.92-.386c3.63-1.526,13.56-4.43,15.91.41C1253.97,721.412,1252.34,724.321,1250.37,726.1Zm-9.32-5.271a5.991,5.991,0,0,1,2.62-.721c2.19,0.078,3.56,1,3.76,1.849,0,0.011.01,0.024,0.01,0.037,0.13,0.677-.5,1.437-1.72,2.094C1243.55,722.516,1242.04,721.485,1241.05,720.832Z" transform="translate(-1204 -646)"/>
</svg>
