<svg xmlns="http://www.w3.org/2000/svg" width="22" height="22" viewBox="0 0 22 22">
  <defs>
    <style>
      .cls-1 {
        fill: #fff;
        fill-rule: evenodd;
      }
    </style>
  </defs>
  <path id="Forma_1" data-name="Forma 1" class="cls-1" d="M894.39,1100.45a0.85,0.85,0,0,0,.025-0.25v-0.94a8.116,8.116,0,0,0-2.443-5.85,8.609,8.609,0,0,0-11.948,0,8.112,8.112,0,0,0-2.439,5.85v0.94a0.85,0.85,0,0,0,.025.25,3.26,3.26,0,0,0-2.61,3.47c0,1.85,1.16,3.37,2.62,3.47a2.142,2.142,0,0,0,1.69.83,2.093,2.093,0,0,0,2.111-2.07v-4.46a2.065,2.065,0,0,0-1.98-2.06v-0.37a6.559,6.559,0,0,1,13.117,0v0.37a2.065,2.065,0,0,0-1.98,2.06v4.46a2.055,2.055,0,0,0,1.013,1.76,6.4,6.4,0,0,1-2.813,2.26,1.743,1.743,0,0,0-1.278-.56h-2.381a1.706,1.706,0,0,0-1.718,1.68v0.03a1.7,1.7,0,0,0,1.718,1.68H887.5a1.727,1.727,0,0,0,1.566-.99,8.494,8.494,0,0,0,3.05-1.9,8.148,8.148,0,0,0,1.583-2.14,2.192,2.192,0,0,0,.684-0.58c1.46-.1,2.617-1.62,2.617-3.47A3.26,3.26,0,0,0,894.39,1100.45Z" transform="translate(-875 -1091)"/>
</svg>
