<svg xmlns="http://www.w3.org/2000/svg" width="49" height="31" viewBox="0 0 49 31">
  <defs>
    <style>
      .cls-1 {
        fill: #fff;
        fill-rule: evenodd;
      }
    </style>
  </defs>
  <path id="Rectangle_4_copy" data-name="Rectangle 4 copy" class="cls-1" d="M219.685,361.6a0.915,0.915,0,0,1-.34.433c-0.185.123-1.927,1.994-8.787,2.191a9.12,9.12,0,0,0,.2-1.848c5.125-.152,6.376-1.141,7.351-1.723a3.97,3.97,0,0,0,.137-1.181,1.563,1.563,0,0,1-.006-0.171c-0.046-1.565-.216-1.265-1.737-1.835-6.892,0-5.03-3.978-5.141-4.06a0.887,0.887,0,0,1-.105-0.116,2.935,2.935,0,0,1-1.79.628h-0.209a2.918,2.918,0,0,1-1.782-.623,0.841,0.841,0,0,1-.094.1,4.157,4.157,0,0,1-.117,1.936,7.662,7.662,0,0,0-1.453-.818,4.892,4.892,0,0,0,.465-2.029,5.9,5.9,0,0,1-.69-0.663,8.844,8.844,0,0,1-2.05-6.692c0.164-3.685,1.01-4.285,2.281-5.313a5.206,5.206,0,0,1,3.511-.94h0.111a5.315,5.315,0,0,1,3.512.968c1.185,0.88,2.078,1.627,2.241,5.285a8.837,8.837,0,0,1-2.049,6.692,6.155,6.155,0,0,1-.677.648c0.269,1.262-.453,3.209,4.506,3.209l0.066,0.02c2.832,1.016,2.917,2.185,2.956,3.544,0,0.061.007,0.117,0.007,0.171v0.021A6.172,6.172,0,0,1,219.685,361.6Zm-6.245-16.3a0.134,0.134,0,0,1-.007-0.055c-0.2-4.653-2.273-4.468-4.036-4.509h-0.078c-1.185,0-3.821-.411-4.036,4.509,0,0.014-.007.034-0.007,0.055a7.057,7.057,0,0,0,1.619,5.292c0.816,0.974,1.3,1.469,2.43,1.469h0.066c1.329,0,1.614-.5,2.437-1.469A7.009,7.009,0,0,0,213.44,345.3Zm-13.921,8.109c0.27,1.261,1.4,4.148,6.356,4.148l0.065,0.02c2.833,1.016,2.918,3.124,2.957,4.483,0,0.062.007,0.116,0.007,0.171v0.021a11.589,11.589,0,0,1-.314,3.1,0.909,0.909,0,0,1-.339.432c-0.2.13-4.889,2.211-12.741,2.211s-12.546-2.074-12.741-2.211a0.871,0.871,0,0,1-.34-0.432,11.062,11.062,0,0,1-.333-3.109v-0.02a1.357,1.357,0,0,0,.007-0.172c0.039-1.352.124-3.46,2.957-4.482a0.5,0.5,0,0,1,.065-0.021c4.966,0,6.088-2.853,6.356-4.126a5.989,5.989,0,0,1-.69-0.664c-2.513-2.979-2.1-8.084-2.05-8.571,0.163-3.685,1.834-5.435,3.2-6.251a6.981,6.981,0,0,1,3.511-.941h0.111a6.988,6.988,0,0,1,3.512.968c1.358,0.816,3,2.566,3.166,6.224,0.045,0.487.463,5.592-2.05,8.571A5.992,5.992,0,0,1,199.519,353.411ZM185.6,359.336c-1.521.57-1.691,1.209-1.736,2.774,0,0.062-.007.117-0.007,0.171a12.441,12.441,0,0,0,.137,2.121c1.064,0.631,5.776,1.531,12.055,1.531,6.306,0,9.909-.893,10.967-1.524a13.2,13.2,0,0,0,.137-2.121,1.349,1.349,0,0,1-.007-0.171c-0.045-1.565-.215-2.205-1.736-2.774-6.892,0-6.88-4.917-6.991-5a0.88,0.88,0,0,1-.1-0.116,6.376,6.376,0,0,1-2.715.628h-0.209a6.374,6.374,0,0,1-2.706-.623,0.782,0.782,0,0,1-.095.1C192.474,354.412,192.132,359.336,185.6,359.336Zm14.9-14.974a0.127,0.127,0,0,1-.007-0.054,5.368,5.368,0,0,0-4.961-5.449c-0.85-.032-4.687.541-5.039,5.449,0,0.013-.006.034-0.006,0.054-0.007.042-.451,4.729,1.619,7.171A4.165,4.165,0,0,0,195.457,353h0.066a4.179,4.179,0,0,0,3.361-1.469C200.96,349.077,200.5,344.411,200.5,344.362Zm-23.025-3.605a7.871,7.871,0,0,0-2.386,5.549c-0.071,2.482-.469,6.835-1.565,7.489s-2.054.06-1.492-.559,1.433-3.5,1.652-7.254c0.246-4.2,1.8-6.167,3.594-7.247,3.961-2.377,10.073.185,11.291,1.043l-0.765,1.558C184.034,339.412,179.836,338.8,177.472,340.757Zm-3.486,14.992,0.066-.02c4.994,0,4.267-1.943,4.538-3.2a5.842,5.842,0,0,1-.682-0.647,6.955,6.955,0,0,1-1.139-6.676c0.032-.71.058-1.284,0.086-1.8a22.526,22.526,0,0,0,3,.855,7.254,7.254,0,0,0,2.006.252c0.048,0,.088,0,0.134,0l0.089,0a11.036,11.036,0,0,0,4.5-.981c0.023,0.481.046,1.013,0.075,1.671a6.955,6.955,0,0,1-1.139,6.676,5.944,5.944,0,0,1-.7.663,4.861,4.861,0,0,0,.469,2.024,7.7,7.7,0,0,0-1.463.816,4.113,4.113,0,0,1-.118-1.931,0.948,0.948,0,0,1-.095-0.105,2.95,2.95,0,0,1-1.794.622h-0.21a2.962,2.962,0,0,1-1.8-.627,0.776,0.776,0,0,1-.106.116c-0.111.083,1.763,4.051-5.177,4.051-1.531.568-1.7,0.269-1.748,1.83a1.357,1.357,0,0,1-.007.172,3.986,3.986,0,0,0,.138,1.178c0.982,0.58,2.241,1.567,7.4,1.719a9.018,9.018,0,0,0,.2,1.844c-6.908-.2-8.662-2.064-8.849-2.187a0.915,0.915,0,0,1-.342-0.432,6.086,6.086,0,0,1-.315-2.157v-0.02c0-.055.006-0.11,0.006-0.172C171.048,357.929,171.133,356.763,173.986,355.749Zm5.243-5.094c0.829,0.972,1.116,1.465,2.454,1.465h0.066c1.135,0,1.626-.493,2.448-1.465,1.655-1.936.787-4.08,0.738-4.909a7.789,7.789,0,0,1-3.014.647,10.584,10.584,0,0,1-3.425-.637C178.444,346.59,177.575,348.715,179.229,350.655Z" transform="translate(-171 -337)"/>
</svg>
