<svg xmlns="http://www.w3.org/2000/svg" width="31" height="36" viewBox="0 0 31 36">
  <defs>
    <style>
      .cls-1 {
        fill: #fff;
        fill-rule: evenodd;
      }
    </style>
  </defs>
  <path id="Shape_1_copy_3" data-name="Shape 1 copy 3" class="cls-1" d="M210,131.972H185.747c-2.068,0-3.747,1-3.747,3.027s1.939,3,4,3l8,0v-2h8v2.01l8,0.005a1,1,0,0,1,1,1v26a0.993,0.993,0,0,1-1,.986H185.747A5.715,5.715,0,0,1,180,160.334V135c0-3.121,2.58-5,5.747-5H210A0.987,0.987,0,1,1,210,131.972Zm-28,28.362a3.725,3.725,0,0,0,3.746,3.693h23.244l0.022-24.007L202,140.014V140h-2v-2h-4v2h-2v0.007L186,140a6.2,6.2,0,0,1-4-1v21.335ZM198.094,150L194,154V140.006l2,0V149l2-3,2,3v-8.987l2,0V154ZM196,140.008V140h4v0.013Z" transform="translate(-180 -130)"/>
</svg>
