<svg xmlns="http://www.w3.org/2000/svg" width="53" height="36.656" viewBox="0 0 53 36.656">
  <defs>
    <style>
      .cls-1 {
        fill: #fff;
        fill-rule: evenodd;
      }
    </style>
  </defs>
  <path id="_" data-name="?" class="cls-1" d="M214.393,465.2a15.783,15.783,0,0,0,2.847,6.459,31.142,31.142,0,0,1-4.3-1.869,24.8,24.8,0,0,1-3.634-2.53,23.129,23.129,0,0,1-5.8.738c-10.217,0-18.5-6.492-18.5-14.5s8.283-14.5,18.5-14.5,18.5,6.492,18.5,14.5C222,458.311,219,462.563,214.393,465.2ZM203.5,441c-9.113,0-16.5,5.6-16.5,12.5s7.387,12.5,16.5,12.5a21.049,21.049,0,0,0,6.592-1.037c1.523,1.66,3.1,3.044,2.908,2.037a16.154,16.154,0,0,0-.874-2.842c4.724-2.2,7.874-6.15,7.874-10.658C220,446.6,212.613,441,203.5,441Zm6.5,16H197a1,1,0,0,1,0-2h13A1,1,0,0,1,210,457Zm0-5H197a1,1,0,0,1,0-2h13A1,1,0,0,1,210,452Zm-27-15c-6.9,0-12,3.765-12,9,0,3.419,1.15,6.2,5.874,8.423a16.48,16.48,0,0,0-.874,2.872c-0.2,1.017,1.385-.382,2.908-2.059A15.59,15.59,0,0,1,183,455c0.058,0,.114,0,0.172-0.006a13.135,13.135,0,0,0,.467,1.975c-0.213.008-.423,0.026-0.639,0.026a6.036,6.036,0,0,0-3.3.565,24.8,24.8,0,0,1-3.634,2.556,31.049,31.049,0,0,1-4.3,1.889,16.031,16.031,0,0,0,2.847-6.527C170,452.811,169,449.646,169,446c0-6.074,6.268-11,14-11a15.64,15.64,0,0,1,10.906,4.111,18.62,18.62,0,0,0-1.9.777A14.005,14.005,0,0,0,183,437Zm-2,12.007a0.974,0.974,0,0,1,1,1,1.006,1.006,0,0,1-2.012,0A0.976,0.976,0,0,1,181,449.006Zm-0.85-4.316L179,443.639a2.6,2.6,0,0,1,5.012,1.087,2.287,2.287,0,0,1-1.942,2.379L182,448h-2l0.152-2.235a1.2,1.2,0,0,0,1.874-.905C182.026,443.989,180.615,443.772,180.152,444.69Z" transform="translate(-169 -435)"/>
</svg>
