<svg xmlns="http://www.w3.org/2000/svg" width="34" height="30" viewBox="0 0 34 30">
  <defs>
    <style>
      .cls-1 {
        fill: #fff;
        fill-rule: evenodd;
      }
    </style>
  </defs>
  <path class="cls-1" d="M210.434,237H181.566a2.556,2.556,0,0,0-2.575,2.531V261.5c0,1.42,1.582,2.5,3,2.5H195v1l-3,.042V267H200v-1.958L197,265v-1h13.006c1.42,0,3-1.077,3-2.5V239.529A2.556,2.556,0,0,0,210.434,237Zm-28.441,2h28.014a1.463,1.463,0,0,1,1,1v19H181V240A1.452,1.452,0,0,1,181.993,239Zm28.014,23H181.993a1.061,1.061,0,0,1-1.056-.5l0.062-.5h30l0.062,0.5A1.061,1.061,0,0,1,210.007,262ZM191,256V243l11,6.5L191,256m2-9.606v6.216l5.017-3.108A19.354,19.354,0,0,0,193,246.391" transform="translate(-179 -237)"/>
</svg>
