<svg xmlns="http://www.w3.org/2000/svg" width="46" height="46" viewBox="0 0 46 46">
  <defs>
    <style>
      .cls-1 {
        fill: #fff;
        fill-rule: evenodd;
      }
    </style>
  </defs>
  <path id="Forma_1" data-name="Forma 1" class="cls-1" d="M-44,45.989a23,23,0,0,1-23-23,23,23,0,0,1,23-23,23,23,0,0,1,23,23A23,23,0,0,1-44,45.989Zm10.923-28.341a10.754,10.754,0,0,1-1.512,2.895c-0.635.97-1.313,1.907-1.942,2.881a1.4,1.4,0,0,0,.186,2.114,34.137,34.137,0,0,1,2.351,2.612,7.507,7.507,0,0,1,.842,1.338,0.985,0.985,0,0,1-.532,1.5h-3.5a2.584,2.584,0,0,1-2.228-1c-0.483-.543-0.932-1.123-1.4-1.686a3.454,3.454,0,0,0-.629-0.619,0.7,0.7,0,0,0-1.164.312,4.392,4.392,0,0,0-.368,1.8,0.977,0.977,0,0,1-1.114,1.191,8.259,8.259,0,0,1-5-1.189,11.57,11.57,0,0,1-3.367-3.48,48.49,48.49,0,0,1-4.432-8.724c-0.28-.687-0.075-1.056.612-1.07,1.141-.025,2.282-0.021,3.423,0a1.023,1.023,0,0,1,.95.786,24.328,24.328,0,0,0,2.32,4.747,3.94,3.94,0,0,0,.877,1.064c0.405,0.307.714,0.205,0.9-.294a3.534,3.534,0,0,0,.2-1,16.434,16.434,0,0,0-.056-3.489,1.405,1.405,0,0,0-1.123-1.332c-0.334-.07-0.285-0.206-0.122-0.416A1.223,1.223,0,0,1-47.823,16h3.951a1.014,1.014,0,0,1,.846,1.135l0,4.847a1.47,1.47,0,0,0,.558,1.238,0.752,0.752,0,0,0,.788-0.427,15.318,15.318,0,0,0,2.226-3.776c0.267-.6.5-1.217,0.721-1.837a0.857,0.857,0,0,1,.893-0.676l3.8,0a1.769,1.769,0,0,1,.337.023C-33.055,16.653-32.879,16.958-33.078,17.648ZM90,45.989a23,23,0,1,1,23-23A23,23,0,0,1,90,45.989ZM100.051,34h-19.1A0.949,0.949,0,0,1,80,33.053V13.946A0.948,0.948,0,0,1,80.948,13h19.1a0.949,0.949,0,0,1,.949.947V33.053A0.95,0.95,0,0,1,100.051,34ZM90.5,19.179a4.32,4.32,0,1,0,4.32,4.32A4.32,4.32,0,0,0,90.5,19.179ZM99,15H95v4h4V15Zm0,7-2.353.187a6.29,6.29,0,1,1-12.294,0L82,22V32H99V22ZM23,45.989a23,23,0,1,1,23-23A23,23,0,0,1,23,45.989Zm12.986-25.1q-0.014-.759-0.118-1.919a17.562,17.562,0,0,0-.3-2.073,3.273,3.273,0,0,0-.97-1.729,2.965,2.965,0,0,0-1.737-.816A90.818,90.818,0,0,0,23.5,14a90.815,90.815,0,0,0-9.361.351,2.933,2.933,0,0,0-1.73.816,3.293,3.293,0,0,0-.963,1.729,15.644,15.644,0,0,0-.314,2.073q-0.1,1.16-.118,1.919T11,23q0,1.349.014,2.109t0.118,1.919a17.531,17.531,0,0,0,.3,2.074,3.276,3.276,0,0,0,.97,1.729,2.964,2.964,0,0,0,1.737.815A90.622,90.622,0,0,0,23.5,32a90.626,90.626,0,0,0,9.361-.352,2.932,2.932,0,0,0,1.73-.815,3.3,3.3,0,0,0,.963-1.729,15.711,15.711,0,0,0,.314-2.074q0.1-1.16.118-1.919T36,23Q36,21.649,35.986,20.891Zm-7.547,2.868-7.143,4.5a0.791,0.791,0,0,1-.474.141,0.96,0.96,0,0,1-.432-0.112,0.839,0.839,0,0,1-.46-0.787v-9a0.89,0.89,0,0,1,1.367-.759l7.143,4.5A0.9,0.9,0,0,1,28.439,23.759Z"/>
</svg>
