<svg xmlns="http://www.w3.org/2000/svg" xmlns:xlink="http://www.w3.org/1999/xlink" width="80" height="80" viewBox="0 0 80 80">
  <defs>
    <style>
      .cls-1 {
        fill-rule: evenodd;
        fill: url(#linear-gradient);
      }
    </style>
    <linearGradient id="linear-gradient" x1="787.441" y1="3157" x2="816.559" y2="3077" gradientUnits="userSpaceOnUse">
      <stop offset="0" stop-color="#01ce84"/>
      <stop offset="1" stop-color="#45619d"/>
    </linearGradient>
  </defs>
  <path id="Forma_1" data-name="Forma 1" class="cls-1" d="M798.084,3126.33a19.351,19.351,0,0,0,7.747-1.73,18.147,18.147,0,0,0,7.824-6.19c1.564-2.34,1.978-4.64,1.165-6.49-1.015-2.31-3.885-3.69-7.679-3.69a19.508,19.508,0,0,0-7.745,1.73,18.153,18.153,0,0,0-7.824,6.19c-1.564,2.34-1.979,4.64-1.167,6.49C791.42,3124.95,794.291,3126.33,798.084,3126.33ZM798,3115.67h9.333a1.33,1.33,0,1,1,0,2.66H798A1.33,1.33,0,1,1,798,3115.67ZM818.917,3137a3.085,3.085,0,0,0,3.083-3.08v-33.84a3.085,3.085,0,0,0-3.083-3.08H785.084a3.085,3.085,0,0,0-3.084,3.08v33.84a3.085,3.085,0,0,0,3.084,3.08h33.833Zm-29.561-22.33a20.8,20.8,0,0,1,8.967-7.15,22.153,22.153,0,0,1,8.818-1.96c4.884,0,8.667,1.98,10.12,5.29,1.194,2.71.7,5.92-1.39,9.04a20.89,20.89,0,0,1-8.967,7.16,22.322,22.322,0,0,1-8.82,1.95c-4.884,0-8.667-1.98-10.12-5.28C786.772,3121,787.267,3117.79,789.356,3114.67ZM820.711,3093H783.289a5.293,5.293,0,0,0-5.289,5.29v7.38a0.667,0.667,0,0,0,.667.66,3.65,3.65,0,0,1,.666.07v-6.32a5.757,5.757,0,0,1,5.751-5.75h33.833a5.757,5.757,0,0,1,5.75,5.75v33.84a5.757,5.757,0,0,1-5.75,5.75H785.084a5.757,5.757,0,0,1-5.751-5.75v-6.32a3.65,3.65,0,0,1-.666.07,0.667,0.667,0,0,0-.667.66v7.38a5.293,5.293,0,0,0,5.289,5.29h37.422a5.293,5.293,0,0,0,5.289-5.29v-37.42A5.293,5.293,0,0,0,820.711,3093Zm6.622-16v1.33a5.333,5.333,0,1,1-10.666,0V3077H762v80h54.667v-1.33a5.333,5.333,0,1,1,10.666,0V3157H842v-80H827.333ZM834,3109a1.335,1.335,0,1,1-1.333,1.33A1.335,1.335,0,0,1,834,3109Zm0,13.33a1.335,1.335,0,1,1-1.333,1.34A1.337,1.337,0,0,1,834,3122.33ZM784.667,3081a1.335,1.335,0,1,1-1.334,1.33A1.335,1.335,0,0,1,784.667,3081Zm-5.334,0a1.335,1.335,0,1,1-1.333,1.33A1.335,1.335,0,0,1,779.333,3081Zm-14.666-1.33h6.114l-6.114,6.11v-6.11Zm2.666,53.33a1.335,1.335,0,1,1,1.334-1.33A1.335,1.335,0,0,1,767.333,3133Zm1.334,5.33a1.334,1.334,0,1,1-1.334-1.33A1.338,1.338,0,0,1,768.667,3138.33Zm-1.334-12a1.33,1.33,0,1,1,1.334-1.33A1.328,1.328,0,0,1,767.333,3126.33Zm0-6.66a1.335,1.335,0,1,1,1.334-1.34A1.337,1.337,0,0,1,767.333,3119.67Zm0-6.67a1.335,1.335,0,1,1,1.334-1.33A1.335,1.335,0,0,1,767.333,3113Zm0-16a1.335,1.335,0,1,1,1.334-1.33A1.335,1.335,0,0,1,767.333,3097Zm0-4a1.335,1.335,0,1,1,1.334-1.33A1.335,1.335,0,0,1,767.333,3093Zm0,60a1.335,1.335,0,1,1,1.334-1.33A1.335,1.335,0,0,1,767.333,3153Zm0-6.67a1.33,1.33,0,1,1,1.334-1.33A1.328,1.328,0,0,1,767.333,3146.33Zm2.667-2.66a1.335,1.335,0,1,1,1.333-1.34A1.337,1.337,0,0,1,770,3143.67Zm0-6.67a1.335,1.335,0,1,1,1.333-1.33A1.335,1.335,0,0,1,770,3137Zm0-6.67a1.33,1.33,0,1,1,1.333-1.33A1.328,1.328,0,0,1,770,3130.33Zm0-6.66a1.335,1.335,0,1,1,1.333-1.34A1.337,1.337,0,0,1,770,3123.67Zm0-6.67a1.335,1.335,0,1,1,1.333-1.33A1.335,1.335,0,0,1,770,3117Zm0-6.67a1.33,1.33,0,1,1,1.333-1.33A1.328,1.328,0,0,1,770,3110.33Zm5.333,40a1.33,1.33,0,1,1,1.334-1.33A1.328,1.328,0,0,1,775.333,3150.33ZM778,3153a1.335,1.335,0,1,1,1.333-1.33A1.335,1.335,0,0,1,778,3153Zm4-2.67a1.33,1.33,0,1,1,1.333-1.33A1.328,1.328,0,0,1,782,3150.33Zm2.667,2.67a1.335,1.335,0,1,1,1.333-1.33A1.335,1.335,0,0,1,784.667,3153Zm4-2.67A1.33,1.33,0,1,1,790,3149,1.329,1.329,0,0,1,788.667,3150.33Zm2.666,2.67a1.335,1.335,0,1,1,1.334-1.33A1.335,1.335,0,0,1,791.333,3153Zm4-2.67a1.33,1.33,0,1,1,1.334-1.33A1.328,1.328,0,0,1,795.333,3150.33ZM798,3153a1.335,1.335,0,1,1,1.333-1.33A1.335,1.335,0,0,1,798,3153Zm4-2.67a1.33,1.33,0,1,1,1.333-1.33A1.328,1.328,0,0,1,802,3150.33Zm2.667,2.67a1.335,1.335,0,1,1,1.333-1.33A1.335,1.335,0,0,1,804.667,3153Zm4-2.67A1.33,1.33,0,1,1,810,3149,1.329,1.329,0,0,1,808.667,3150.33Zm2.666,2.67a1.335,1.335,0,1,1,1.334-1.33A1.335,1.335,0,0,1,811.333,3153Zm17.334-17.29a7.967,7.967,0,0,1-7.956,7.96H783.289a7.967,7.967,0,0,1-7.956-7.96v-7.38a3.334,3.334,0,0,1,3.334-3.33,0.668,0.668,0,0,0,.666-0.67v-14.66a0.668,0.668,0,0,0-.666-0.67,3.34,3.34,0,0,1-3.334-3.33v-7.38a7.967,7.967,0,0,1,7.956-7.96h37.422a7.967,7.967,0,0,1,7.956,7.96v37.42Zm5.333,2.62a1.33,1.33,0,1,1,1.333-1.33A1.328,1.328,0,0,1,834,3138.33Zm2.667,14.67a1.335,1.335,0,1,1,1.333-1.33A1.335,1.335,0,0,1,836.667,3153Zm0-12a1.335,1.335,0,1,1,1.333-1.33A1.335,1.335,0,0,1,836.667,3141Zm0-13.33a1.335,1.335,0,1,1,1.333-1.34A1.338,1.338,0,0,1,836.667,3127.67Zm0-13.34A1.33,1.33,0,1,1,838,3113,1.329,1.329,0,0,1,836.667,3114.33Zm0-30.66a1.335,1.335,0,1,1,1.333-1.34A1.338,1.338,0,0,1,836.667,3083.67Z" transform="translate(-762 -3077)"/>
</svg>
