<svg xmlns="http://www.w3.org/2000/svg" width="46" height="46" viewBox="0 0 46 46">
  <defs>
    <style>
      .cls-1 {
        fill: #fff;
        fill-rule: evenodd;
      }
    </style>
  </defs>
  <path id="Forma_1" data-name="Forma 1" class="cls-1" d="M-111,45.989a23,23,0,0,1-23-23,23,23,0,0,1,23-23,23,23,0,0,1,23,23A23,23,0,0,1-111,45.989Zm10.922-28.341a10.734,10.734,0,0,1-1.512,2.895c-0.635.97-1.312,1.907-1.942,2.881a1.4,1.4,0,0,0,.186,2.114,33.965,33.965,0,0,1,2.351,2.612,7.458,7.458,0,0,1,.842,1.338,0.986,0.986,0,0,1-.532,1.5h-3.5a2.583,2.583,0,0,1-2.227-1c-0.484-.543-0.933-1.123-1.4-1.686a3.468,3.468,0,0,0-.629-0.619,0.7,0.7,0,0,0-1.164.312,4.394,4.394,0,0,0-.368,1.8,0.977,0.977,0,0,1-1.115,1.191,8.257,8.257,0,0,1-5-1.189,11.56,11.56,0,0,1-3.367-3.48,48.491,48.491,0,0,1-4.432-8.724c-0.279-.687-0.075-1.056.612-1.07,1.141-.025,2.282-0.021,3.423,0a1.023,1.023,0,0,1,.95.786,24.278,24.278,0,0,0,2.32,4.747,3.933,3.933,0,0,0,.877,1.064c0.4,0.307.713,0.205,0.9-.294a3.555,3.555,0,0,0,.2-1,16.349,16.349,0,0,0-.056-3.489,1.4,1.4,0,0,0-1.123-1.332c-0.334-.07-0.285-0.206-0.122-0.416a1.223,1.223,0,0,1,1.073-.59h3.951a1.014,1.014,0,0,1,.846,1.135l0,4.847a1.468,1.468,0,0,0,.558,1.238,0.752,0.752,0,0,0,.788-0.427,15.315,15.315,0,0,0,2.226-3.776c0.267-.6.5-1.217,0.721-1.837a0.858,0.858,0,0,1,.893-0.676l3.8,0a1.76,1.76,0,0,1,.337.023C-100.055,16.653-99.879,16.958-100.078,17.648ZM23,45.989a23,23,0,1,1,23-23A23,23,0,0,1,23,45.989ZM33.051,34h-19.1A0.949,0.949,0,0,1,13,33.053V13.946A0.948,0.948,0,0,1,13.948,13h19.1a0.949,0.949,0,0,1,.949.947V33.053A0.949,0.949,0,0,1,33.051,34ZM23.5,19.179a4.32,4.32,0,1,0,4.32,4.32A4.32,4.32,0,0,0,23.5,19.179ZM32,15H28v4h4V15Zm0,7-2.353.187a6.29,6.29,0,1,1-12.294,0L15,22V32H32V22Zm-76,23.99a23,23,0,0,1-23-23,23,23,0,0,1,23-23,23,23,0,0,1,23,23A23,23,0,0,1-44,45.989Zm12.986-25.1q-0.014-.759-0.118-1.919a17.562,17.562,0,0,0-.3-2.073,3.273,3.273,0,0,0-.969-1.729,2.965,2.965,0,0,0-1.737-.816A90.818,90.818,0,0,0-43.5,14a90.815,90.815,0,0,0-9.361.351,2.933,2.933,0,0,0-1.73.816,3.293,3.293,0,0,0-.963,1.729,15.644,15.644,0,0,0-.314,2.073q-0.1,1.16-.118,1.919T-56,23q0,1.349.014,2.109t0.118,1.919a17.531,17.531,0,0,0,.3,2.074,3.276,3.276,0,0,0,.97,1.729,2.964,2.964,0,0,0,1.737.815A90.622,90.622,0,0,0-43.5,32a90.626,90.626,0,0,0,9.361-.352,2.932,2.932,0,0,0,1.73-.815,3.3,3.3,0,0,0,.963-1.729,15.711,15.711,0,0,0,.314-2.074q0.1-1.16.118-1.919T-31,23Q-31,21.649-31.014,20.891Zm-7.547,2.868-7.143,4.5a0.791,0.791,0,0,1-.474.141,0.96,0.96,0,0,1-.432-0.112,0.839,0.839,0,0,1-.46-0.787v-9a0.838,0.838,0,0,1,.46-0.787,0.835,0.835,0,0,1,.907.028l7.143,4.5a0.81,0.81,0,0,1,.418.759A0.811,0.811,0,0,1-38.561,23.759Z"/>
</svg>
