<svg xmlns="http://www.w3.org/2000/svg" xmlns:xlink="http://www.w3.org/1999/xlink" width="65.312" height="65.31" viewBox="0 0 65.312 65.31">
  <defs>
    <style>
      .cls-1 {
        fill-rule: evenodd;
        fill: url(#linear-gradient);
      }
    </style>
    <linearGradient id="linear-gradient" x1="464.459" y1="3151" x2="488.229" y2="3085.69" gradientUnits="userSpaceOnUse">
      <stop offset="0" stop-color="#01ce84"/>
      <stop offset="1" stop-color="#45619d"/>
    </linearGradient>
  </defs>
  <path id="Forma_1_копия_5" data-name="Forma 1 копия 5" class="cls-1" d="M473.671,3091.2v25a0.534,0.534,0,0,0,.535.53h34.243a0.534,0.534,0,0,0,.535-0.53v-29.98a0.535,0.535,0,0,0-.185-0.41,0.511,0.511,0,0,0-.427-0.12l-34.243,4.98A0.534,0.534,0,0,0,473.671,3091.2Zm-3.746,54.43a0.511,0.511,0,0,0,.352-0.13,0.534,0.534,0,0,0,.183-0.4v-24.62a0.535,0.535,0,0,0-.535-0.53H444.256a0.533,0.533,0,0,0-.379.15,0.542,0.542,0,0,0-.156.38v21.1a0.535,0.535,0,0,0,.462.53l25.668,3.52h0.073Zm-25.666-28.9h25.666a0.535,0.535,0,0,0,.535-0.53v-24.38a0.534,0.534,0,0,0-.183-0.4,0.544,0.544,0,0,0-.424-0.13l-25.689,3.49a0.535,0.535,0,0,0-.463.53l0.023,20.89A0.535,0.535,0,0,0,444.259,3116.73Zm64.19,34.27a0.563,0.563,0,0,0,.351-0.13,0.537,0.537,0,0,0,.184-0.41l0.009-29.98a0.543,0.543,0,0,0-.157-0.38,0.53,0.53,0,0,0-.378-0.15H474.206a0.534,0.534,0,0,0-.535.53v25.16a0.527,0.527,0,0,0,.46.53l34.243,4.82A0.194,0.194,0,0,0,508.449,3151Z" transform="translate(-443.688 -3085.69)"/>
</svg>
