<svg xmlns="http://www.w3.org/2000/svg" xmlns:xlink="http://www.w3.org/1999/xlink" width="88.09" height="79" viewBox="0 0 88.09 79">
  <defs>
    <style>
      .cls-1 {
        fill-rule: evenodd;
        fill: url(#linear-gradient);
      }
    </style>
    <linearGradient id="linear-gradient" x1="1146.638" y1="3157.03" x2="1175.392" y2="3078.03" gradientUnits="userSpaceOnUse">
      <stop offset="0" stop-color="#01ce84"/>
      <stop offset="1" stop-color="#45619d"/>
    </linearGradient>
  </defs>
  <path class="cls-1" d="M1197.43,3078.04h-72.84a7.762,7.762,0,0,0-7.61,7.87v50.13a7.769,7.769,0,0,0,7.61,7.87h33.31v6.71h-23.3l-3.11,3.21v3.21h59.04v-3.21l-3.1-3.21h-23.31v-6.71h33.31a7.771,7.771,0,0,0,7.62-7.87v-50.13A7.771,7.771,0,0,0,1197.43,3078.04Zm4.51,48.37a4.6,4.6,0,0,1-4.51,4.66h-72.84a4.6,4.6,0,0,1-4.51-4.66v-40.5a4.59,4.59,0,0,1,4.51-4.66h72.84a4.59,4.59,0,0,1,4.51,4.66v40.5Zm-38.08-5.41h-18.72a1.119,1.119,0,0,1-1.14-1.1v-25.8a1.119,1.119,0,0,1,1.14-1.1h13.52a1.012,1.012,0,0,1,.74.32l5.36,5.91a0.968,0.968,0,0,1,.24.63v20.04A1.119,1.119,0,0,1,1163.86,3121Zm-5.87-2.01H1161v-0.93h-1.94v-1.18h1.74v-0.92h-1.74v-1.04h1.85v-0.93h-2.92v5Zm-3.99.03h2.99v-0.96h-1.9v-4.07H1154v5.03Zm-2,0h0.99v-0.96h-0.02v-4.07H1152v5.03Zm-3.99-.01h1.12v-2.02h1.76v-0.92h-1.76v-1.15h1.88v-0.93h-3v5.02Zm15.85-18.75h-5.01a0.559,0.559,0,0,1-.57-0.55v-5.61h-13.14v17.54h18.73Zm-17.46.23h0.68a3.491,3.491,0,0,1,.36-0.84l-0.48-.46a0.32,0.32,0,0,1,0-.46l0.83-.79a0.32,0.32,0,0,1,.46,0l0.49,0.46a3.685,3.685,0,0,1,.87-0.35v-0.65a0.318,0.318,0,0,1,.33-0.32h1.16a0.324,0.324,0,0,1,.33.32v0.65a3.685,3.685,0,0,1,.87.35l0.48-.46a0.332,0.332,0,0,1,.47,0l0.83,0.79a0.339,0.339,0,0,1,0,.46l-0.49.46a3.16,3.16,0,0,1,.37.84h0.68a0.322,0.322,0,0,1,.32.32v1.13a0.316,0.316,0,0,1-.32.32h-0.68a3.16,3.16,0,0,1-.37.84l0.49,0.47a0.326,0.326,0,0,1,0,.45l-0.83.8a0.352,0.352,0,0,1-.47,0l-0.48-.47a3.685,3.685,0,0,1-.87.35v0.66a0.331,0.331,0,0,1-.33.32h-1.16a0.324,0.324,0,0,1-.33-0.32v-0.66a3.685,3.685,0,0,1-.87-0.35l-0.49.47a0.339,0.339,0,0,1-.46,0l-0.83-.8a0.308,0.308,0,0,1,0-.45l0.48-.47a3.491,3.491,0,0,1-.36-0.84h-0.68a0.324,0.324,0,0,1-.33-0.32v-1.13A0.331,0.331,0,0,1,1146.4,3100.49Zm4.12,2.56a1.676,1.676,0,1,0-1.73-1.67A1.706,1.706,0,0,0,1150.52,3103.05Zm4.46,2.75h0.48a2.548,2.548,0,0,1,.26-0.61l-0.34-.33a0.208,0.208,0,0,1,0-.32l0.59-.57a0.235,0.235,0,0,1,.33,0l0.34,0.33a2.854,2.854,0,0,1,.63-0.25v-0.47a0.226,0.226,0,0,1,.23-0.23h0.84a0.226,0.226,0,0,1,.23.23v0.47a2.854,2.854,0,0,1,.63.25l0.34-.33a0.235,0.235,0,0,1,.33,0l0.59,0.57a0.208,0.208,0,0,1,0,.32l-0.34.33a2.548,2.548,0,0,1,.26.61h0.48a0.233,0.233,0,0,1,.24.22v0.81a0.235,0.235,0,0,1-.24.23h-0.48a2.476,2.476,0,0,1-.26.6l0.34,0.34a0.208,0.208,0,0,1,0,.32l-0.59.57a0.235,0.235,0,0,1-.33,0l-0.34-.33a3.445,3.445,0,0,1-.63.25v0.47a0.224,0.224,0,0,1-.23.22h-0.84a0.224,0.224,0,0,1-.23-0.22v-0.47a2.854,2.854,0,0,1-.63-0.25l-0.34.33a0.235,0.235,0,0,1-.33,0l-0.59-.57a0.208,0.208,0,0,1,0-.32l0.34-.34a2.476,2.476,0,0,1-.26-0.6h-0.48a0.235,0.235,0,0,1-.24-0.23v-0.81A0.233,0.233,0,0,1,1154.98,3105.8Zm2.94,1.83a1.2,1.2,0,1,0-1.24-1.2A1.225,1.225,0,0,0,1157.92,3107.63Zm24.08,6.66-9-7.29v11.34l2.55-2.96,2.23,4.62,2.46-1.11-2.23-4.61ZM1161,3135a2,2,0,1,1-2,2A2.006,2.006,0,0,1,1161,3135Z" transform="translate(-1116.97 -3078.03)"/>
</svg>
