<?xml version="1.0" encoding="UTF-8"?>
<!DOCTYPE svg PUBLIC "-//W3C//DTD SVG 1.1//EN" "http://www.w3.org/Graphics/SVG/1.1/DTD/svg11.dtd">
<!-- Creator: CorelDRAW X7 -->
<svg xmlns="http://www.w3.org/2000/svg" xml:space="preserve" width="240px" height="25px" version="1.1" style="shape-rendering:geometricPrecision; text-rendering:geometricPrecision; image-rendering:optimizeQuality; fill-rule:evenodd; clip-rule:evenodd"
viewBox="0 0 24000 2500"
 xmlns:xlink="http://www.w3.org/1999/xlink">
 <defs>
  <style type="text/css">
   <![CDATA[
    .fil0 {fill:black;fill-rule:nonzero}
   ]]>
  </style>
 </defs>
 <g id="Слой_x0020_1">
  <metadata id="CorelCorpID_0Corel-Layer"/>
  <path class="fil0" d="M41 102l660 0 0 817 90 0c33,0 64,-5 92,-16 28,-10 55,-31 78,-60l732 -853 498 390 -718 781 871 902 -476 413 -835 -866c-42,-42 -78,-74 -110,-96 -31,-23 -72,-34 -123,-34l-99 0 0 907 -660 0 0 -2285zm13908 534l-305 0 0 -534 705 0 90 211c116,-90 225,-155 327,-195 102,-41 208,-61 319,-61 51,0 106,2 166,7 60,4 120,17 180,38l-99 530c-45,-12 -84,-20 -117,-23 -33,-3 -75,-4 -126,-4 -113,0 -211,20 -291,60 -81,41 -144,82 -189,124l0 1598 -660 0 0 -1751zm-1178 359c-3,-152 -40,-263 -112,-332 -72,-69 -160,-103 -265,-103 -123,0 -228,41 -316,123 -89,82 -137,187 -146,312l839 0zm687 1261c-120,51 -262,98 -429,142 -166,43 -349,65 -549,65 -231,0 -426,-30 -586,-90 -160,-60 -290,-144 -391,-251 -100,-108 -173,-236 -217,-384 -45,-148 -68,-311 -68,-487 0,-159 26,-312 77,-460 50,-148 127,-279 229,-393 101,-113 225,-204 372,-271 147,-68 317,-101 512,-101 182,0 339,28 471,85 132,57 241,138 328,245 86,106 151,235 193,386 42,151 62,319 62,505l-188 179 -1351 0c6,141 62,257 168,348 106,91 255,137 447,137 114,0 231,-14 352,-41 121,-27 252,-65 393,-116l175 502zm-5775 -2091l665 -77 179 1630c3,45 14,81 34,108 19,26 43,47 69,60 27,14 56,23 86,27 29,5 58,7 85,7 39,0 78,-5 117,-14 39,-9 73,-22 103,-40l0 -1764 637 0 0 1764c27,18 61,31 101,40 41,9 80,14 119,14 21,0 46,-2 76,-7 30,-4 58,-13 83,-27 26,-13 48,-32 68,-56 19,-24 32,-57 38,-99l184 -1643 660 77 -198 1638c-12,90 -36,175 -71,256 -37,81 -87,151 -151,211 -64,60 -146,107 -245,141 -98,35 -217,52 -354,52 -114,0 -225,-14 -334,-41 -110,-26 -209,-65 -299,-116 -87,48 -185,86 -294,114 -109,29 -221,43 -334,43 -138,0 -256,-16 -355,-47 -99,-32 -181,-76 -247,-135 -66,-58 -117,-128 -152,-209 -36,-80 -60,-170 -72,-269l-198 -1638zm-1419 1759c168,0 294,-57 379,-173 86,-115 128,-285 128,-509 0,-452 -169,-678 -507,-678 -168,0 -295,57 -384,171 -88,114 -132,283 -132,507 0,224 44,394 132,509 89,116 216,173 384,173zm0 539c-203,0 -380,-32 -530,-94 -149,-63 -273,-150 -372,-261 -99,-110 -172,-240 -220,-388 -48,-148 -72,-307 -72,-478 0,-171 26,-330 79,-478 52,-148 128,-277 229,-386 100,-109 224,-195 372,-258 148,-63 320,-94 514,-94 207,0 385,31 534,94 150,63 273,149 368,258 96,109 167,238 214,386 46,148 69,307 69,478 0,171 -25,330 -74,478 -49,148 -123,278 -222,388 -99,111 -222,198 -370,261 -149,62 -321,94 -519,94zm-3679 -1805l-161 -426 561 -256 130 234c105,-51 213,-95 325,-131 113,-35 243,-53 393,-53 168,0 309,23 424,69 115,47 208,111 279,193 70,83 120,179 150,290 30,110 45,229 45,354l0 1455 -660 0 0 -1405c0,-147 -28,-249 -85,-308 -57,-58 -145,-87 -265,-87 -93,0 -177,11 -253,33 -77,23 -151,50 -223,83l0 1684 -660 0 0 -1729z"/>
  <path class="fil0" d="M15916 2379c71,0 121,-26 150,-77 29,-51 43,-126 43,-223 0,-94 -14,-166 -43,-217 -29,-51 -79,-77 -150,-77 -72,0 -122,25 -152,74 -29,49 -43,123 -43,221 0,47 3,88 10,125 7,37 18,68 33,94 16,26 36,45 61,59 25,14 55,21 91,21zm7893 -918l-91 0 0 -97 229 0 0 1086 -138 0 0 -989zm-521 918c71,0 121,-26 150,-77 29,-51 43,-126 43,-223 0,-94 -14,-166 -43,-217 -29,-51 -79,-77 -150,-77 -72,0 -122,25 -151,74 -29,49 -44,123 -44,221 0,47 3,88 10,125 7,37 18,68 34,94 15,26 35,45 60,59 25,14 55,21 91,21zm-4 97c-64,0 -116,-10 -158,-29 -43,-20 -77,-48 -103,-83 -26,-35 -45,-77 -56,-126 -10,-48 -16,-100 -16,-158 0,-57 7,-110 21,-158 14,-49 34,-91 62,-127 27,-35 62,-63 105,-83 42,-19 92,-29 149,-29 59,0 110,10 152,29 42,20 77,48 104,83 27,35 47,76 60,125 13,49 19,102 19,159 0,58 -6,111 -18,159 -12,49 -32,91 -60,126 -28,35 -63,63 -106,83 -42,19 -94,29 -155,29zm-825 -97c71,0 121,-26 150,-77 29,-51 44,-126 44,-223 0,-94 -15,-166 -44,-217 -29,-51 -79,-77 -150,-77 -71,0 -122,25 -151,74 -29,49 -44,123 -44,221 0,47 4,88 11,125 7,37 18,68 33,94 15,26 35,45 61,59 25,14 55,21 90,21zm-4 97c-63,0 -116,-10 -158,-29 -42,-20 -77,-48 -103,-83 -26,-35 -44,-77 -55,-126 -11,-48 -16,-100 -16,-158 0,-57 7,-110 20,-158 14,-49 35,-91 62,-127 28,-35 63,-63 105,-83 43,-19 92,-29 149,-29 60,0 110,10 153,29 42,20 77,48 104,83 27,35 47,76 60,125 12,49 19,102 19,159 0,58 -6,111 -19,159 -12,49 -32,91 -60,126 -27,35 -62,63 -105,83 -43,19 -95,29 -156,29zm-1144 -1114l137 0 0 404c34,-26 71,-46 111,-61 39,-15 79,-22 118,-22 49,0 90,8 123,23 33,15 60,36 79,62 20,26 34,57 42,92 8,35 12,71 12,110l0 480 -138 0 0 -473c0,-62 -13,-107 -38,-134 -26,-28 -63,-42 -112,-42 -41,0 -77,7 -109,21 -32,14 -61,30 -88,50l0 578 -137 0 0 -1088zm-150 1055c-27,15 -60,28 -100,41 -40,12 -86,18 -138,18 -67,0 -123,-9 -167,-28 -44,-20 -80,-46 -106,-80 -27,-34 -46,-75 -57,-123 -12,-48 -17,-101 -17,-159 0,-57 7,-110 21,-159 13,-50 35,-92 64,-129 29,-36 66,-64 111,-85 44,-20 98,-30 161,-30 45,0 87,6 125,18 38,11 70,25 97,41l-42 92c-26,-14 -54,-26 -84,-35 -29,-9 -63,-14 -100,-14 -73,0 -126,25 -160,75 -34,49 -51,125 -51,226 0,45 3,84 11,119 7,35 19,65 36,90 17,25 39,45 66,58 28,13 62,20 102,20 33,0 62,-3 90,-9 27,-6 59,-18 96,-35l42 88zm-1248 -106c23,13 54,26 93,41 38,15 83,22 133,22 52,0 94,-9 124,-26 31,-18 46,-47 46,-87 0,-23 -5,-42 -15,-56 -10,-14 -23,-26 -40,-35 -16,-10 -36,-17 -58,-23 -22,-6 -45,-12 -70,-19 -28,-7 -55,-16 -82,-25 -27,-10 -51,-23 -72,-39 -22,-16 -39,-36 -52,-60 -13,-25 -20,-56 -20,-93 0,-33 6,-63 17,-91 11,-27 29,-51 52,-71 24,-20 53,-37 88,-48 35,-12 76,-18 124,-18 47,0 91,6 133,17 41,11 75,25 103,41l-41 90c-62,-34 -128,-50 -197,-50 -48,0 -86,8 -113,25 -27,16 -40,43 -40,81 0,21 4,39 13,53 9,14 21,25 36,35 15,9 33,17 53,23 20,7 41,13 63,19 26,8 53,16 81,24 29,9 55,21 78,37 24,16 44,37 59,63 15,26 23,59 23,100 0,74 -24,132 -70,173 -47,42 -120,62 -218,62 -65,0 -122,-8 -169,-25 -48,-17 -83,-32 -106,-47l44 -93zm-588 -291c0,-79 -14,-139 -42,-179 -29,-40 -71,-60 -128,-60 -61,0 -104,21 -129,63 -26,42 -41,101 -46,176l345 0zm111 399c-24,14 -58,26 -103,39 -44,12 -91,18 -141,18 -68,0 -124,-9 -169,-28 -46,-20 -82,-47 -109,-81 -27,-35 -46,-76 -58,-125 -11,-49 -17,-103 -17,-162 0,-54 7,-105 20,-153 12,-49 32,-91 59,-127 26,-35 60,-64 101,-85 42,-21 92,-32 150,-32 55,0 101,11 139,34 38,23 69,52 92,88 23,36 40,77 50,122 11,46 16,92 16,137l-49 52 -439 0c4,87 23,151 58,193 34,43 87,64 158,64 37,0 73,-4 106,-12 34,-8 65,-19 95,-32l41 90zm-1404 -556l-57 -125 109 -58 60 98c45,-34 87,-58 126,-73 39,-15 81,-22 126,-22 49,0 90,8 123,23 33,15 59,36 79,62 20,26 33,57 41,92 8,35 12,71 12,110l0 480 -137 0 0 -473c0,-62 -13,-107 -38,-134 -25,-28 -63,-42 -113,-42 -37,0 -73,7 -107,20 -34,13 -63,30 -86,50l0 579 -138 0 0 -587zm-318 -291c-29,0 -51,-9 -67,-28 -16,-18 -25,-42 -25,-71 0,-28 9,-52 25,-71 16,-20 38,-29 67,-29 30,0 52,9 69,29 16,19 24,43 24,71 0,29 -8,53 -24,71 -17,19 -39,28 -69,28zm-53 235l-95 0 0 -97 232 0 0 740 -137 0 0 -643zm-381 -346l-91 0 0 -97 229 0 0 1086 -138 0 0 -989zm-837 402l-57 -125 109 -58 61 98c44,-34 86,-58 125,-73 40,-15 81,-22 126,-22 49,0 90,8 123,23 33,15 59,36 79,62 20,26 34,57 41,92 8,35 12,71 12,110l0 480 -137 0 0 -473c0,-62 -13,-107 -38,-134 -25,-28 -63,-42 -113,-42 -37,0 -73,7 -107,20 -34,13 -63,30 -86,50l0 579 -138 0 0 -587zm-532 613c-63,0 -115,-10 -158,-29 -42,-20 -76,-48 -102,-83 -26,-35 -45,-77 -56,-126 -11,-48 -16,-100 -16,-158 0,-57 7,-110 21,-158 14,-49 34,-91 62,-127 27,-35 62,-63 105,-83 42,-19 92,-29 149,-29 59,0 110,10 152,29 42,20 77,48 104,83 27,35 47,76 60,125 13,49 19,102 19,159 0,58 -6,111 -18,159 -13,49 -32,91 -60,126 -28,35 -63,63 -106,83 -43,19 -94,29 -156,29z"/>
 </g>
</svg>
