<svg xmlns="http://www.w3.org/2000/svg" width="115" height="127" viewBox="0 0 115 127">
  <defs>
    <style>
      .cls-1 {
        fill: #fff;
        fill-rule: evenodd;
      }
    </style>
  </defs>
  <path class="cls-1" d="M127,122.354a192.274,192.274,0,0,0-27.781-17.007,1.031,1.031,0,0,1-.593-0.938V93.153a25.129,25.129,0,0,0,3.26-8.837c1.259-.1,2.889-1.851,4.667-8.121,2.42-8.565-.148-9.824-2.321-9.627a20.668,20.668,0,0,0,.938-3.53c3.7-22.191-7.235-22.956-7.235-22.956a16.754,16.754,0,0,0-6.593-6.122A22.217,22.217,0,0,0,77.834,31.1a20.02,20.02,0,0,0-5.383,1.037h0a24.86,24.86,0,0,0-5.927,3.036,31.085,31.085,0,0,0-6.1,5.035,24.618,24.618,0,0,0-6.593,11.552,25.221,25.221,0,0,0,.049,11.281h0a24.129,24.129,0,0,0,.938,3.53c-2.173-.2-4.766,1.061-2.321,9.627,1.778,6.27,3.433,8.022,4.667,8.121a26.6,26.6,0,0,0,3.26,8.936v11.158a1.032,1.032,0,0,1-.593.938,189.852,189.852,0,0,0-27.781,17.007A25.074,25.074,0,0,0,22,142.472v15.036A6.5,6.5,0,0,0,28.495,164H130.507A6.5,6.5,0,0,0,137,157.508V142.472A24.719,24.719,0,0,0,127,122.354Z" transform="translate(-22 -31)"/>
</svg>
