<svg xmlns="http://www.w3.org/2000/svg" xmlns:xlink="http://www.w3.org/1999/xlink" preserveAspectRatio="xMidYMid" width="140" height="150" viewBox="0 0 140 150">
  <defs>
    <style>

      .cls-3 {
        fill: url(#linear-gradient-1);
      }

      .cls-4 {
        fill: url(#linear-gradient-2);
      }

      .cls-5 {
        fill: url(#linear-gradient-3);
      }

      .cls-6 {
        fill: url(#linear-gradient-4);
      }

      .cls-8 {
        fill: url(#linear-gradient-6);
      }

      .cls-9 {
        fill: #ffffff;
      }

      .cls-11 {
        fill: url(#linear-gradient-7);
      }

      .cls-12 {
        fill: url(#linear-gradient-8);
      }
    </style>

    <linearGradient id="linear-gradient-1" gradientUnits="userSpaceOnUse" x1="70" y1="104" x2="70" y2="1">
      <stop offset="0" stop-color="#02d980"/>
      <stop offset="0.28" stop-color="#02d980"/>
      <stop offset="1" stop-color="#004f9f"/>
    </linearGradient>
    <linearGradient id="linear-gradient-2" gradientUnits="userSpaceOnUse" x1="69.469" y1="150" x2="69.469" y2="90.312">
      <stop offset="0" stop-color="#02d980"/>
      <stop offset="1" stop-color="#004c99"/>
    </linearGradient>
    <linearGradient id="linear-gradient-3" gradientUnits="userSpaceOnUse" x1="69.578" y1="73.844" x2="69.578" y2="66.906">
      <stop offset="0" stop-color="#004c99"/>
      <stop offset="1" stop-color="#2da8cb"/>
    </linearGradient>
    <linearGradient id="linear-gradient-4" gradientUnits="userSpaceOnUse" x1="69.125" y1="91.125" x2="69.125" y2="64.157">
      <stop offset="0" stop-color="#ff9c00">
		<animate attributeName="stop-color" from="#ff9c00" to="#ff7a00" dur="3s" fill="freeze" />
	  </stop>
      <stop offset="1" stop-color="#ff7a00">
		<animate attributeName="stop-color" from="#ff7a00" to="#ff9c00" dur="3s" fill="freeze" />
	  </stop>
    </linearGradient>
    <linearGradient id="linear-gradient-6" gradientUnits="userSpaceOnUse" x1="69.156" y1="92.25" x2="69.156" y2="62.468">
      <stop offset="-0.1" stop-color="#004c99"/>
      <stop offset="1.1" stop-color="#02d980"/>
    </linearGradient>
    <linearGradient id="linear-gradient-7" gradientUnits="userSpaceOnUse" x1="104" y1="130" x2="104" y2="103">
      <stop offset="0" stop-color="#ff9c00"/>
      <stop offset="1" stop-color="#02d980"/>
    </linearGradient>
    <linearGradient id="linear-gradient-8" gradientUnits="userSpaceOnUse" x1="71.422" y1="67.813" x2="71.422" y2="-0.031">
      <stop offset="0" stop-color="#004c99"/>
      <stop offset="1" stop-color="#02d980"/>
    </linearGradient>
  </defs>
  <g id="1svg">
    <path d="M138.174,71.859 C138.174,71.859 138.174,63.586 138.174,63.586 C139.260,62.957 139.999,61.799 139.999,60.459 C139.999,28.373 101.841,1.031 69.582,1.031 C37.323,1.031 0.000,28.373 0.000,60.459 C0.000,61.799 0.739,62.957 1.825,63.586 C1.825,63.586 1.825,71.859 1.825,71.859 C0.741,72.490 0.000,73.648 0.000,74.983 C0.000,74.983 0.000,89.507 0.000,89.507 C0.000,91.502 1.643,93.137 3.651,93.137 C5.658,93.137 7.301,91.502 7.301,89.507 C7.301,89.507 7.301,87.691 7.301,87.691 C7.301,87.691 9.126,87.691 9.126,87.691 C9.126,87.691 9.126,94.953 9.126,94.953 C9.126,99.945 13.233,104.030 18.253,104.030 C18.253,104.030 20.078,104.030 20.078,104.030 C23.090,104.030 25.554,101.578 25.554,98.584 C25.554,98.584 25.554,65.906 25.554,65.906 C25.554,62.908 23.090,60.459 20.078,60.459 C20.078,60.459 18.253,60.459 18.253,60.459 C13.233,60.459 9.126,64.544 9.126,69.536 C9.126,69.536 9.126,78.614 9.126,78.614 C9.126,78.614 7.301,78.614 7.301,78.614 C7.301,78.614 7.301,74.983 7.301,74.983 C7.301,73.648 6.560,72.490 5.476,71.858 C5.476,71.858 5.476,63.585 5.476,63.585 C6.562,62.957 7.301,61.799 7.301,60.459 C7.301,32.385 41.356,8.293 69.582,8.293 C97.809,8.293 132.698,32.385 132.698,60.459 C132.698,61.799 133.437,62.957 134.523,63.585 C134.523,63.585 134.523,71.858 134.523,71.858 C133.439,72.490 132.698,73.648 132.698,74.983 C132.698,74.983 132.698,78.614 132.698,78.614 C132.698,78.614 130.873,78.614 130.873,78.614 C130.873,78.614 130.873,69.537 130.873,69.537 C130.873,64.544 126.766,60.459 121.746,60.459 C121.746,60.459 119.921,60.459 119.921,60.459 C116.909,60.459 114.445,62.909 114.445,65.906 C114.445,65.906 114.445,98.584 114.445,98.584 C114.445,101.578 116.909,104.031 119.921,104.031 C119.921,104.031 121.746,104.031 121.746,104.031 C126.766,104.031 130.873,99.946 130.873,94.954 C130.873,94.954 130.873,87.692 130.873,87.692 C130.873,87.692 132.698,87.692 132.698,87.692 C132.698,87.692 132.698,89.507 132.698,89.507 C132.698,91.502 134.341,93.138 136.349,93.138 C138.356,93.138 139.999,91.502 139.999,89.507 C139.999,89.507 139.999,74.983 139.999,74.983 C140.000,73.648 139.258,72.490 138.174,71.859 " id="path-1" class="cls-3" fill-rule="evenodd"/>
    <path d="M107.647,92.602 C107.647,92.602 100.729,109.969 98.812,112.764 C95.497,117.595 91.342,115.339 88.974,116.273 C88.530,112.141 86.908,103.606 81.152,100.860 C81.152,100.860 80.954,100.765 80.954,100.765 C77.677,99.207 73.525,98.345 69.279,98.345 C65.033,98.345 60.881,99.207 57.600,100.768 C57.600,100.768 57.402,100.862 57.402,100.862 C51.649,103.607 50.028,112.141 49.584,116.273 C47.214,115.339 43.061,117.594 39.746,112.764 C37.821,109.957 33.939,101.560 30.874,92.452 C26.511,93.295 24.339,91.307 24.339,91.307 C24.339,91.307 26.196,108.051 26.196,108.051 C23.020,130.769 49.716,150.030 68.977,150.030 C88.238,150.030 113.737,133.870 112.924,108.080 C112.924,108.080 113.792,99.275 114.591,90.350 C113.311,93.495 107.647,92.602 107.647,92.602 ZM79.213,131.232 C78.427,132.162 77.383,132.634 76.021,132.674 C75.928,132.677 75.837,132.678 75.749,132.678 C75.749,132.678 75.748,132.678 75.748,132.678 C74.486,132.678 73.902,132.396 73.786,132.155 C73.346,131.242 74.702,128.342 76.221,126.345 C76.638,125.799 76.719,125.060 76.430,124.440 C76.140,123.819 75.527,123.424 74.850,123.424 C74.850,123.424 63.708,123.424 63.708,123.424 C63.032,123.424 62.420,123.819 62.130,124.440 C61.840,125.059 61.921,125.797 62.337,126.344 C63.858,128.342 65.214,131.242 64.774,132.155 C64.658,132.397 64.074,132.678 62.811,132.678 C62.722,132.678 62.631,132.677 62.538,132.674 C61.175,132.634 60.132,132.163 59.346,131.232 C57.164,128.649 57.309,123.082 57.553,121.131 C57.557,121.095 57.561,121.060 57.563,121.024 C57.568,120.965 58.079,114.929 61.393,113.747 C64.804,112.529 67.851,111.026 69.279,110.286 C70.707,111.026 73.754,112.529 77.166,113.747 C79.940,114.737 80.871,119.353 80.995,121.024 C80.997,121.059 81.001,121.095 81.005,121.130 C81.250,123.082 81.395,128.649 79.213,131.232 Z" id="path-2" class="cls-4" fill-rule="evenodd"/>
    <path d="M114.545,66.924 C114.545,66.924 122.570,66.924 122.570,66.924 C122.570,66.924 125.643,70.280 123.238,71.349 C120.833,72.418 116.551,73.878 116.551,73.878 C116.551,73.878 114.545,66.924 114.545,66.924 ZM24.362,66.924 C24.362,66.924 16.547,66.924 16.547,66.924 C16.547,66.924 13.553,70.280 15.895,71.349 C18.238,72.418 22.409,73.878 22.409,73.878 C22.409,73.878 24.362,66.924 24.362,66.924 Z" id="path-3" class="cls-5" fill-rule="evenodd"/>
    <path d="M85.504,64.394 C94.752,64.118 111.818,63.656 117.220,66.924 C116.730,73.695 116.022,84.165 112.943,88.790 C106.454,90.147 81.168,93.200 77.883,89.051 C76.769,82.729 74.985,75.141 73.870,68.820 C75.025,65.658 76.910,65.958 78.552,65.027 C81.004,64.605 83.052,64.816 85.504,64.394 ZM53.404,64.786 C44.155,64.511 26.420,63.428 21.019,66.664 C21.508,73.371 22.216,84.210 25.295,88.790 C31.784,90.134 58.408,92.063 61.693,87.954 C62.807,81.693 63.922,75.430 65.037,69.169 C63.882,66.037 61.997,66.335 60.355,65.412 C57.903,64.995 55.855,65.204 53.404,64.786 Z" id="path-4" class="cls-6" fill-rule="evenodd"/>
    <path d="M117.624,76.146 C116.364,85.817 116.666,85.952 114.280,88.790 C111.895,91.628 110.556,91.319 108.262,91.319 C105.968,91.319 81.895,92.212 81.895,92.212 C81.895,92.212 79.357,92.298 76.545,89.683 C73.734,87.068 73.954,80.831 73.870,77.671 C73.787,74.511 73.078,72.190 72.533,71.349 C71.907,70.383 71.085,69.644 69.115,69.644 C67.145,69.644 66.319,70.350 65.676,71.343 C65.132,72.183 64.425,74.503 64.342,77.661 C64.258,80.819 64.478,87.051 61.673,89.665 C58.868,92.279 55.402,92.192 55.402,92.192 C55.402,92.192 32.304,91.299 30.016,91.299 C27.727,91.299 26.392,91.608 24.011,88.772 C21.631,85.936 21.932,85.801 20.675,76.136 C19.394,66.282 19.018,67.054 20.409,65.657 C21.775,64.287 23.083,63.554 25.747,63.130 C28.411,62.706 39.048,62.498 49.398,62.498 C59.747,62.498 62.155,63.604 63.674,65.025 C65.194,66.447 65.009,68.184 65.009,68.184 C65.009,68.184 66.343,68.184 66.343,68.184 C66.343,68.184 66.708,66.973 69.103,66.973 C71.499,66.973 71.864,68.188 71.864,68.188 C71.864,68.188 73.202,68.188 73.202,68.188 C73.202,68.188 73.016,66.449 74.539,65.027 C76.063,63.604 78.473,62.498 88.847,62.498 C99.221,62.498 109.868,62.706 112.538,63.131 C115.209,63.554 116.520,64.289 117.888,65.659 C119.284,67.056 118.909,66.285 117.624,76.146 ZM59.671,66.289 C57.188,65.424 52.066,65.657 52.066,65.657 C52.066,65.657 30.417,65.657 30.417,65.657 C30.417,65.657 24.878,65.704 23.078,66.921 C21.278,68.138 21.744,72.607 21.744,72.607 C21.744,72.607 24.333,85.158 25.345,86.876 C26.359,88.594 28.014,88.772 28.014,88.772 C28.014,88.772 49.184,89.665 54.068,89.665 C58.951,89.665 60.339,85.243 60.339,85.243 C60.339,85.243 62.260,71.703 62.340,69.448 C62.420,67.192 62.155,67.153 59.671,66.289 ZM115.213,66.924 C113.410,65.706 107.857,65.659 107.857,65.659 C107.857,65.659 86.172,65.659 86.172,65.659 C86.172,65.659 81.041,65.426 78.552,66.291 C76.063,67.156 75.797,67.196 75.877,69.452 C75.957,71.709 77.883,85.258 77.883,85.258 C77.883,85.258 78.338,89.683 83.233,89.683 C88.128,89.683 110.268,88.790 110.268,88.790 C110.268,88.790 111.928,88.613 112.943,86.893 C113.958,85.174 116.551,72.613 116.551,72.613 C116.551,72.613 117.017,68.141 115.213,66.924 Z" id="path-6" class="cls-8" fill-rule="evenodd"/>
    <path d="M52.735,68.820 C54.622,68.820 56.874,70.011 57.680,70.717 C58.487,71.423 59.018,75.775 59.018,75.775 C59.018,75.775 59.944,70.328 59.018,69.452 C58.092,68.577 55.690,68.083 52.735,68.820 Z" id="path-7" class="cls-9" fill-rule="evenodd"/>
    <path d="M107.857,68.820 C109.744,68.820 111.063,70.011 111.870,70.717 C112.676,71.423 113.207,75.775 113.207,75.775 C113.207,75.775 114.133,70.328 113.207,69.452 C112.281,68.577 110.812,68.083 107.857,68.820 Z" id="path-8" class="cls-9" fill-rule="evenodd"/>
    <path d="M89.358,121.293 C89.358,121.293 95.961,121.293 95.961,121.293 C97.493,121.293 98.842,122.090 99.615,123.296 C104.285,122.729 112.779,120.125 114.989,117.467 C116.418,115.745 119.128,104.793 119.475,103.031 C119.475,103.031 123.011,103.031 123.011,103.031 C122.632,105.416 119.716,117.187 117.678,119.659 C114.909,123.008 105.700,126.021 100.182,126.713 C99.711,128.622 98.009,130.036 95.964,130.036 C95.964,130.036 89.358,130.036 89.358,130.036 C86.954,130.036 85.001,128.079 85.001,125.665 C85.001,123.248 86.954,121.293 89.358,121.293 Z" id="path-9" class="cls-11" fill-rule="evenodd"/>
    <path d="M20.598,64.285 C20.598,64.285 19.735,62.600 19.490,61.049 C18.585,55.331 16.508,41.567 16.910,38.164 C17.421,33.838 24.918,27.746 27.391,28.152 C22.365,21.347 32.593,18.783 32.593,18.783 C32.593,18.783 42.306,10.533 64.806,6.047 C66.935,5.887 61.733,3.965 57.277,3.412 C58.838,0.518 68.642,5.403 68.642,5.403 C68.642,5.403 64.721,1.479 60.202,0.280 C61.507,-0.970 67.460,2.614 74.180,5.001 C86.421,9.357 97.412,8.941 101.078,13.747 C102.868,15.671 101.285,19.179 103.837,19.503 C106.395,19.824 121.222,23.666 125.995,37.363 C120.454,31.438 116.533,31.680 116.533,31.680 C116.533,31.680 123.106,46.728 123.106,46.728 C123.106,46.728 117.147,37.809 120.431,49.101 C118.211,46.355 116.475,62.510 117.632,64.285 C115.159,60.490 111.938,61.278 104.570,60.712 C104.579,55.648 105.846,50.980 105.967,50.182 C106.823,46.899 90.967,43.056 90.967,43.056 C90.967,43.056 102.556,50.023 99.743,56.667 C100.358,51.105 92.414,48.899 92.414,48.899 C92.414,48.899 98.238,56.140 93.374,67.858 C97.203,51.941 85.171,46.251 78.862,43.534 C72.556,40.807 58.835,41.927 50.824,44.733 C42.814,47.535 34.544,45.295 34.544,45.295 C34.544,45.295 35.912,52.181 35.912,52.181 C35.912,52.181 32.075,49.297 32.075,49.297 C32.075,49.297 31.309,53.701 31.309,53.701 C31.309,53.701 33.775,57.865 33.439,60.273 C30.969,57.386 29.858,57.386 29.858,57.386 C29.858,57.386 31.992,60.675 31.052,62.432 C29.858,60.113 24.330,61.605 24.330,61.605 C24.330,61.605 20.598,64.285 20.598,64.285 Z" id="path-10" class="cls-12" fill-rule="evenodd"/>
  </g>
</svg>
