<svg xmlns="http://www.w3.org/2000/svg" xmlns:xlink="http://www.w3.org/1999/xlink" width="26.75" height="26.906" viewBox="0 0 26.75 26.906">
  <defs>
    <style>
      .cls-1 {
        fill-rule: evenodd;
        fill: url(#linear-gradient);
      }
    </style>
    <linearGradient id="linear-gradient" x1="1073.315" y1="825.031" x2="1073.315" y2="798.125" gradientUnits="userSpaceOnUse">
      <stop offset="0" stop-color="#e27000"/>
      <stop offset="0.01" stop-color="#e27000"/>
      <stop offset="1" stop-color="#ff9c00"/>
    </linearGradient>
  </defs>
  <path id="b" class="cls-1" d="M1074.49,798.11l-2.97.069-1.39,4.21c-0.58.311-.88,0.318-1.47,0.629l-3.89-1.7-2.03,2.136,1.87,3.835c-0.29.6-.28,0.9-0.56,1.5l-4.12,1.588,0.07,2.982,4.18,1.394c0.31,0.59.32,0.888,0.63,1.478l-1.7,3.917,2.13,2.04,3.81-1.879c0.6,0.285.89,0.278,1.49,0.563l1.58,4.14,2.96-.068,1.39-4.209c0.59-.313.89-0.32,1.47-0.632l3.9,1.7,2.02-2.136-1.86-3.835a3.234,3.234,0,0,0,.56-1.5l4.12-1.587-0.07-2.983-4.18-1.394c-0.31-.59-0.32-0.888-0.63-1.478l1.69-3.917-2.12-2.04-3.81,1.878a3.143,3.143,0,0,0-1.5-.56Zm3.26,13.351a4.446,4.446,0,1,1-4.55-4.37A4.585,4.585,0,0,1,1077.75,811.461Z" transform="translate(-1059.94 -798.125)"/>
</svg>
