<svg xmlns="http://www.w3.org/2000/svg" xmlns:xlink="http://www.w3.org/1999/xlink" width="19.44" height="19.593" viewBox="0 0 19.44 19.593">
  <defs>
    <style>
      .cls-1 {
        fill-rule: evenodd;
        fill: url(#linear-gradient);
      }
    </style>
    <linearGradient id="linear-gradient" x1="1115.28" y1="813.281" x2="1115.28" y2="793.688" gradientUnits="userSpaceOnUse">
      <stop offset="0" stop-color="#e27000"/>
      <stop offset="0.01" stop-color="#e27000"/>
      <stop offset="1" stop-color="#ff9c00"/>
    </linearGradient>
  </defs>
  <path id="c" class="cls-1" d="M1122.65,803.478a7.41,7.41,0,0,0-.13-1.342l2.49-1.437-2.45-4.247-2.49,1.439a7.4,7.4,0,0,0-2.33-1.339v-2.879h-4.91v2.879a7.35,7.35,0,0,0-2.32,1.339l-2.49-1.439-2.46,4.247,2.5,1.439a6.971,6.971,0,0,0,0,2.68l-2.5,1.439,2.46,4.247,2.49-1.439a7.315,7.315,0,0,0,2.32,1.34v2.878h4.91v-2.878a7.207,7.207,0,0,0,2.32-1.34l2.5,1.439,2.45-4.247-2.49-1.437A7.427,7.427,0,0,0,1122.65,803.478Zm-7.36,3.677a3.677,3.677,0,1,1,3.68-3.677A3.673,3.673,0,0,1,1115.29,807.155Z" transform="translate(-1105.56 -793.688)"/>
</svg>
