<svg id="mind.svg" xmlns="http://www.w3.org/2000/svg" xmlns:xlink="http://www.w3.org/1999/xlink" width="121.97" height="167" viewBox="0 0 121.97 167">
  <defs>
    <style>
      .cls-1, .cls-2, .cls-3, .cls-4 {
        fill-rule: evenodd;
      }

      .cls-1 {
        fill: url(#linear-gradient);
      }

      .cls-2 {
        fill: url(#linear-gradient-2);
      }

      .cls-3 {
        fill: url(#linear-gradient-3);
      }

      .cls-4 {
        fill: url(#linear-gradient-4);
      }
    </style>
    <linearGradient id="linear-gradient" x1="1096.985" y1="894" x2="1096.985" y2="727" gradientUnits="userSpaceOnUse">
      <stop offset="0" stop-color="#02d980"/>
      <stop offset="1" stop-color="#004c99"/>
    </linearGradient>
    <linearGradient id="linear-gradient-2" x1="1077.58" y1="830.969" x2="1077.58" y2="782.594" gradientUnits="userSpaceOnUse">
      <stop offset="0" stop-color="#02d980"/>
      <stop offset="1" stop-color="#3d8ad8"/>
    </linearGradient>
    <linearGradient id="linear-gradient-3" x1="1089.235" y1="800.75" x2="1089.235" y2="788.813" gradientUnits="userSpaceOnUse">
      <stop offset="0" stop-color="#e27000"/>
      <stop offset="0.01" stop-color="#e27000"/>
      <stop offset="1" stop-color="#ff9c00"/>
    </linearGradient>
    <linearGradient id="linear-gradient-4" x1="1081.5" y1="851" x2="1081.5" y2="754" gradientUnits="userSpaceOnUse">
      <stop offset="0" stop-color="#16419d"/>
      <stop offset="1" stop-color="#3c8cd6"/>
    </linearGradient>
  </defs>
  <path id="m" class="cls-1" d="M1049.51,870.359s1.76,2.6,4.74-10.481c3.7-18.591-27.33-44.177-9.88-64.492,2.88-2.543-5.82-16.571-3.7-20.25,1.41,4.086,6.17,10.655,6.17,10.655s0.22-19.765,4.09-24.116a92.762,92.762,0,0,0-.4,15.766s5.91-17.008,11.82-19.539c-6.11,6.011-5.82,15.281-5.82,15.281s9.88-19.009,23.63-18.657c-10.05,5.507-12.51,13.326-12.51,13.326s65.05-8.88,53.24-34.115c9.17,2.312,9.17,27.718,9.17,27.718s9-15.282-5.99-34.468c31.2,19.72,19.21,55.076,19.21,55.076s6.7-.53,10.23-25.406c6.88,30.562-12.34,46.549-12.34,46.549s7.58,13.5,3.35,19.9,5.64,20.792,5.46,25.409-7.41,4.086-7.41,4.086,2.83,7.642-3.35,8.528c1.41,0.531,3.88,5.508-3.17,8.347,2.12,0.537,6.35,25.409-23.97,9.776-11.29,5.858-10.91,14.741-10.91,14.741Zm17.22-35.631c8.09,1.85,11.49.48,16.13-2.907,0.56,0.146,1.08.3,1.66,0.433,9.5,2.127,9.71-8.13,13.97-10.107,10.22-4.746,19.77-.528,27.64-5.806,2.54-1.7,4.76-3.362,5.58-6.043,1.99-6.5.98-9.681-1.69-13.808-7.15-11.031-18.34-15.232-26.49-16.814-21.94-4.105-30.85.8-38.14,6.157-12.01,8.846-14.46,18-14.97,21.377-0.1.4-.26,0.771-0.34,1.186A22.24,22.24,0,0,0,1066.73,834.728Z" transform="translate(-1033 -727)"/>
  <path id="n" class="cls-2" d="M1101.12,795.4h0a11.718,11.718,0,0,1-1.92,6.906l-9.37,18.717a45.124,45.124,0,0,1-2.88,3.947,19.523,19.523,0,0,1-13.51,5.982,18.8,18.8,0,0,1-13.47-5.357,19.029,19.029,0,0,1-5.93-13.288,20.32,20.32,0,0,1,5.33-13.849,37.3,37.3,0,0,1,3.49-3.065l18.74-10.878A12.944,12.944,0,0,1,1101.12,795.4Zm-44.11,16.838a16.32,16.32,0,0,0,4.99,11.222,16.138,16.138,0,0,0,11.37,4.51,15.324,15.324,0,0,0,13.46-8.369l9.66-19.021a9.287,9.287,0,0,0,1.36-5.4h0a8.66,8.66,0,0,0-3.11-6.79,9.434,9.434,0,0,0-11.9-1.216l-18.74,10.877a26.581,26.581,0,0,0-2.91,2.455A18.291,18.291,0,0,0,1057.01,812.241Z" transform="translate(-1033 -727)"/>
  <path id="v" class="cls-3" d="M1089.11,788.82a5.966,5.966,0,1,1-5.8,6.1A5.932,5.932,0,0,1,1089.11,788.82Z" transform="translate(-1033 -727)"/>
  <path id="x" class="cls-4" d="M1082,847a2,2,0,1,1-2,2A2,2,0,0,1,1082,847Zm18-3a2,2,0,1,1-2,2A2,2,0,0,1,1100,844Zm19-14a2,2,0,1,1-2,2A2,2,0,0,1,1119,830Zm9-20a2,2,0,1,1-2,2A2,2,0,0,1,1128,810Zm-1-23a2,2,0,1,1-2,2A2,2,0,0,1,1127,787Zm-12-20a2,2,0,1,1-2,2A2,2,0,0,1,1115,767Zm-19-12a2,2,0,1,1-2,2A2,2,0,0,1,1096,755Zm-23-1a2,2,0,1,1-2,2A2,2,0,0,1,1073,754Zm-20,10a2,2,0,1,1-2,2A2,2,0,0,1,1053,764Zm-15,17a2,2,0,1,1-2,2A2,2,0,0,1,1038,781Zm-3,23a2,2,0,1,1-2,2A2,2,0,0,1,1035,804Zm8,22a2,2,0,1,1-2,2A2,2,0,0,1,1043,826Zm17,15a2,2,0,1,1-2,2A2,2,0,0,1,1060,841Z" transform="translate(-1033 -727)"/>
</svg>
