<svg id="world.svg" xmlns="http://www.w3.org/2000/svg" xmlns:xlink="http://www.w3.org/1999/xlink" width="125.781" height="143.375" viewBox="0 0 125.781 143.375">
  <defs>
    <style>
      .cls-1, .cls-2 {
        fill-rule: evenodd;
      }

      .cls-1 {
        fill: url(#linear-gradient);
      }

      .cls-2 {
        fill: url(#linear-gradient-2);
      }
    </style>
    <linearGradient id="linear-gradient" x1="800.188" y1="863.313" x2="800.188" y2="745.625" gradientUnits="userSpaceOnUse">
      <stop offset="0" stop-color="#00579e"/>
      <stop offset="1" stop-color="#0cc9f2"/>
    </linearGradient>
    <linearGradient id="linear-gradient-2" x1="791.329" y1="889" x2="791.329" y2="753.594" gradientUnits="userSpaceOnUse">
      <stop offset="0" stop-color="#02d980"/>
      <stop offset="1" stop-color="#004c99"/>
    </linearGradient>
  </defs>
  <path id="a" class="cls-1" d="M844.11,787.465l1,0.735h0.937v-1.838l2.951-.291,2.8,2.129h4.609l0.323-.3q-0.692-2.375-1.563-4.663l-3.008.05-1.508-1.687-0.292-2.714-1.546.859-0.829,3.318-2.23-2.42-0.091-2.287-2.155-1.891-0.794-.8h-2.5l0.787,2.269,3.008,1.709,0.522,0.565-0.652.333,0.029,1.8-1.466.625-1.25-.279-0.784-1.127,2.034,0.11L843,780.9l-4.5-3.1-0.346-1.32-1.831,1.688-1.855-.389-2.824,3.743-0.557,1.466-1.806.166-2.675.017-1.6-.762-0.471-3.236,0.574-1.543,2.721-.605,2.966,0.605,0.363-1.672-1.26-.305,0.429-2.607,2.988-.476,2.088-3,2.158-.369,1.946,0.295h0.718l-0.4-2.823-2.366.971-0.833-2.111-1.373-.193L835,763.894l1.12-1.243,2.662-1.064,0.687-1.248a56.729,56.729,0,0,0-72.036-3.433l2.911-.023,1.3,0.732,2.445,0.537,0.192,0.979,3.887,0.147-0.527-1.272-3.454-.1,0.813-.779-0.283-.932H771.59L775,753.6h3.264l1.533,2.155,2.546,0.146,1.533-1.518,1.152,0.586-2.113,2.1s-2.924.052-2.781,0.052a10.1,10.1,0,0,1,.24,2.051l3.547-.1,0.384-.975,2.445-.148,0.289-1.465-1.439-.249,0.48-1.32,1.1-.34,3.839,0.194-2.117,1.957,0.343,1.515,2.206,0.342-0.144-2.736,2.112-1.127,3.742-.439,5.42,2.445v2.1l1.728,0.439-0.866,1.663h-2.446l-0.726,1.906-5.585-1.343,4.395-2.387-1.674-1.45-3.791.488-0.331.35-0.012,0-0.06.085-1.092,1.155-1.805.151,0.143,0.917,0.63,0.266-0.024.3-1.469.213-0.108.867-1.4.075-0.254-1.726-2.517.781-5.146,3.07,0.577,2.161,1.439,0.957,2.876,0.4v3.332l1.33-.217,1.225-2.6,3.06-.987v-4l1.7-1.311,4.113,0.991-0.288,2.641H797.3l3.025-1.513,0.145,3.468,2.2,1.369-0.094,2.056-2.108.732,0.143,0.681,2.541,1.179-0.051,1.418-0.735.064a0.253,0.253,0,0,0-.008-0.04l-3.208-1.007-0.135-1.049h0l0.939-.657v-0.957l-1.01-.259-0.25.883-1.77.279-0.176-.059v0.09l-0.612.095-0.5-1.029-0.577-.259H793.8l-0.572.481v1.064l1.077,0.366,1.064,0.154-0.238.107-0.972,1.1-0.426-.548-0.939-.253-2.558,2.452,0.333,0.278-3.775,2.131-3.552,3.766L783,784.277l-3.561,2.385-1.763,1.809,0.2,3.617-2.447-1.162,0.017-2.116-6.809,0-3.528,1.818-1.53,2.879-0.608,2.281L763.959,798l2.78,0.346,4.415-3.008,0.386,1.491-1.347,2.594,3.36,0.585,0.336,5.291,4.606,0.8,2.927-3.447,3.552,0.736,1.247,1.768,3.407-.205,0.095-1.025,1.873,0.928,2.111,3.371,3.644,0.052,1.346,2.4,0.19,2.93,4.031,1.569,5.087,0.05,1.487,2.488,2.256,0.737-0.432,2.056-2.471,3.2-0.72,7.08-2.231,1.8-3.309-.1-1.1,1.953,0.819,3.67-3.6,4.7-1.15,2.152-3.432,1.681-2.256.347-0.093.974,1.585,0.462-0.192,1.052-1.418,1.391,0.861,1.1,1.707,0.051-0.1,1.344-0.455,1.318-0.144,1.074,2.525,2.169-0.337,1.124-3.436-.065-3.419-3.042-2.664-4.772,0.372-4.6-2.015-2.74,0.816-4.642-1.2-.345V828.766s-3.36-2.6-3.552-2.6-1.777-.435-1.777-0.435l-0.337-1.908-4.365-5.574,0.432-2,0.143-3.278,3.022-2.148-0.432-3.67-4.413-.337L769.53,802.8l-2.448-.684-1.581-.3,0.191-1.465-2.016-.292V800.9l-5.04-1.282-2.028-3.161,0.826-1.533-3.191-4.745-0.547-3.471h-1.3l0.43,3.371,2.206,3.471L754.8,794.92l-1.87-.295-2.3-4v-4.653l-2.4-1.174v-3.349a59.521,59.521,0,0,0-4.606,23.025c0,32.446,25.9,58.838,57.735,58.838a57.243,57.243,0,0,0,44.777-21.748h-1.9v-3.91l-2.2-3.025v-4.7l-1.682-1.709-0.147-1.958,2.138-4.157-4.05-7.284,0.476-4.942-3.645-.387-1.344-1.369h-2.448l-1.245,1.172h-4.32l-0.144.392h-2.4l-5.513-6.4,0.045-4.989,0.912-.339,0.338-1.909h-1.3l-0.529-2,6.378-4.691v-3.325l3.123-1.767,1.265,0.127H830.5l2.01-1.1,6.479-.513v3.374Zm-16.2-20.979,0.527-.828,1.9-.392,0.476,2.348,1.01,1.661,0.669,0.784,1.223,0.486-1.152,1.4-2.231.217h-1.676l0.188-2.028,1.395-.295-0.118-.954-1.3-.832-0.912-.633v-0.932h0Zm-3.116,3.668,1.152-1.882,1.554-.368,1.106,0.488-0.1,1.272-2.376,1.711h-1.341v-1.221h0Zm-31.367,7.238-1.2.1,0.065-.852,0.538-.683,0.722,0.578Zm4.215-1.5-0.821.071-0.166.808-0.632.4-1.015.086c-0.035-.242-0.056-0.427-0.056-0.427h-0.393v-0.869h1.654l0.341-.9,0.657-.013,0.752,0.159Z" transform="translate(-730.969 -745.625)"/>
  <path id="e" class="cls-2" d="M851.674,853.455L847.208,849a64.406,64.406,0,1,1-91.2-90.964l-4.466-4.456c-27.434,27.677-27.434,72.534,0,99.875A70.367,70.367,0,0,0,798.4,874.07v8.582H780.87V889h41.136v-6.347H804.757V874.07A70.639,70.639,0,0,0,851.674,853.455Z" transform="translate(-730.969 -745.625)"/>
</svg>
